<svg width="880" height="620" xmlns="http://www.w3.org/2000/svg" font-size="12" font-family="system-ui,Segoe UI,Roboto,Arial">
 <defs>
  <marker orient="auto" refY="3" refX="5" markerHeight="6" markerWidth="6" id="arr-esc1">
   <polygon id="svg_1" vector-effect="non-scaling-stroke" fill="#666" points="0,0 6,3 0,6"/>
  </marker>
 </defs>
 <!-- Moldura -->
 <!-- 1) Marcação da escala -->
 <!-- 2) Jig / Miter box -->
 <!-- 3) Profundidade dos slots -->
 <!-- 4) Contorno &amp; laterais -->
 <g>
  <title>Layer 1</title>
  <path id="svg_2" d="m16,39c0,-6.52055 5.47945,-12 12,-12l816,0c6.52055,0 12,5.47945 12,12l0,556c0,6.52055 -5.47945,12 -12,12l-816,0c-6.52055,0 -12,-5.47945 -12,-12l0,-556z" opacity="undefined" stroke-width="2" stroke="#c8b596" fill="#f6f1e7"/>
  <text id="svg_3" stroke-width="2px" stroke="#fff" paint-order="stroke fill" font-weight="700" fill="#222" class="title" y="48" x="40">Escala — marcação, jig de corte, profundidade dos slots e contorno</text>
  <text id="svg_4" stroke-width="2px" stroke="#fff" paint-order="stroke fill" font-weight="700" fill="#222" class="title" y="84" x="40">1) Marcação da escala</text>
  <g id="svg_5">
   <rect id="svg_6" vector-effect="non-scaling-stroke" stroke-width="2" stroke="#c7ae83" fill="#fff" class="board" height="150" width="360" y="92" x="38"/>
   <rect id="svg_7" vector-effect="non-scaling-stroke" stroke="#c7ae83" fill="#f7efe2" class="wood" rx="4" height="34" width="280" y="116" x="78"/>
   <line id="svg_8" vector-effect="non-scaling-stroke" stroke-width="2" stroke="#7aa1d1" class="lineC" y2="150" x2="218" y1="116" x1="218"/>
   <text id="svg_9" stroke-width="2px" stroke="#fff" paint-order="stroke fill" fill="#333" class="note" y="110" x="202">linha central</text>
   <line id="svg_10" vector-effect="non-scaling-stroke" stroke="#999" class="ticks" y2="150" x2="118" y1="116" x1="118"/>
   <line id="svg_11" vector-effect="non-scaling-stroke" stroke="#999" class="ticks" y2="150" x2="158" y1="116" x1="158"/>
   <line id="svg_12" vector-effect="non-scaling-stroke" stroke="#999" class="ticks" y2="150" x2="198" y1="116" x1="198"/>
   <line id="svg_13" vector-effect="non-scaling-stroke" stroke="#999" class="ticks" y2="150" x2="238" y1="116" x1="238"/>
   <line id="svg_14" vector-effect="non-scaling-stroke" stroke="#999" class="ticks" y2="150" x2="278" y1="116" x1="278"/>
   <text id="svg_15" stroke-width="2px" stroke="#fff" paint-order="stroke fill" fill="#333" class="note" y="170" x="82">ex.: escala 650 → 12ª em 325 mm a partir do nut</text>
   <rect id="svg_16" vector-effect="non-scaling-stroke" stroke="#ddd" fill="#fff" class="labelbox" rx="4" height="20" width="360" y="252" x="38"/>
   <text id="svg_17" stroke-width="2px" stroke="#fff" paint-order="stroke fill" fill="#333" class="note" y="266" x="46">use tabela/gerador; marque com régua de aço + estilete</text>
  </g>
  <text id="svg_18" stroke-width="2px" stroke="#fff" paint-order="stroke fill" font-weight="700" fill="#222" class="title" y="84" x="460">2) Jig de corte (miter box)</text>
  <g id="svg_19">
   <rect id="svg_20" vector-effect="non-scaling-stroke" stroke-width="2" stroke="#c7ae83" fill="#fff" class="board" height="150" width="360" y="96" x="452"/>
   <rect id="svg_21" vector-effect="non-scaling-stroke" stroke="#bbb" fill="#eee" class="jig" rx="6" height="60" width="280" y="120" x="492"/>
   <rect id="svg_22" vector-effect="non-scaling-stroke" stroke="#c7ae83" fill="#f7efe2" class="wood" height="18" width="240" y="132" x="512"/>
   <rect id="svg_23" vector-effect="non-scaling-stroke" stroke="#7b8796" fill="#d3d7de" class="saw" height="8" width="120" y="114" x="592"/>
   <text id="svg_24" stroke-width="2px" stroke="#fff" paint-order="stroke fill" fill="#333" class="note" y="110" x="596">serrote 0,50–0,60 mm</text>
   <text id="svg_25" stroke-width="2px" stroke="#fff" paint-order="stroke fill" fill="#333" class="note" y="196" x="498">batente/guia mantém perpendicularidade</text>
   <rect id="svg_26" vector-effect="non-scaling-stroke" stroke="#ddd" fill="#fff" class="labelbox" rx="4" height="20" width="360" y="256" x="452"/>
   <text id="svg_27" stroke-width="2px" stroke="#fff" paint-order="stroke fill" fill="#333" class="note" y="270" x="460">corte cada casa encostando o traço no batente</text>
  </g>
  <text id="svg_28" stroke-width="2px" stroke="#fff" paint-order="stroke fill" font-weight="700" fill="#222" class="title" y="300" x="40">3) Profundidade dos slots</text>
  <g id="svg_29">
   <rect id="svg_30" vector-effect="non-scaling-stroke" stroke-width="2" stroke="#c7ae83" fill="#fff" class="board" height="150" width="360" y="340" x="40"/>
   <rect id="svg_31" vector-effect="non-scaling-stroke" stroke="#c7ae83" fill="#f7efe2" class="wood" height="28" width="240" y="380" x="100"/>
   <line id="svg_32" vector-effect="non-scaling-stroke" stroke="#999" class="ticks" y2="408" x2="160" y1="380" x1="160"/>
   <rect id="svg_33" vector-effect="non-scaling-stroke" stroke="#e8b36b" fill="#fde9c9" class="depth" height="20" width="4" y="380" x="158"/>
   <text id="svg_34" stroke-width="2px" stroke="#fff" paint-order="stroke fill" fill="#333" class="note" y="398" x="170">~1,6–2,0 mm</text>
   <line id="svg_35" vector-effect="non-scaling-stroke" marker-end="url(#arr-esc1)" stroke-width="2" stroke="#666" class="arrow" y2="380" x2="160" y1="374" x1="160"/>
   <text id="svg_36" stroke-width="2px" stroke="#fff" paint-order="stroke fill" fill="#333" class="note" y="430" x="84">ajuste ao tang do traste; mantenha slots limpos</text>
   <rect id="svg_37" vector-effect="non-scaling-stroke" stroke="#ddd" fill="#fff" class="labelbox" rx="4" height="20" width="360" y="500" x="40"/>
   <text id="svg_38" stroke-width="2px" stroke="#fff" paint-order="stroke fill" fill="#333" class="note" y="514" x="48">faça testes em offcuts para casar profundidade e kerf</text>
  </g>
  <text id="svg_39" stroke-width="2px" stroke="#fff" paint-order="stroke fill" font-weight="700" fill="#222" class="title" y="300" x="460">4) Contorno &amp; filetes laterais</text>
  <g id="svg_40">
   <rect id="svg_41" vector-effect="non-scaling-stroke" stroke-width="2" stroke="#c7ae83" fill="#fff" class="board" height="150" width="360" y="340" x="460"/>
   <path id="svg_42" vector-effect="non-scaling-stroke" stroke="#c7ae83" fill="#f7efe2" class="wood" d="m520,390l220,0l10,6l0,8l-10,6l-220,0l-10,-6l0,-8l10,-6z"/>
   <circle id="svg_43" vector-effect="non-scaling-stroke" fill="#444" r="3" cy="384" cx="600"/>
   <circle id="svg_44" vector-effect="non-scaling-stroke" fill="#444" r="3" cy="384" cx="640"/>
   <circle id="svg_45" vector-effect="non-scaling-stroke" fill="#444" r="3" cy="384" cx="680"/>
   <circle id="svg_46" vector-effect="non-scaling-stroke" fill="#444" r="3" cy="384" cx="720"/>
   <text id="svg_47" stroke-width="2px" stroke="#fff" paint-order="stroke fill" fill="#333" class="note" y="434" x="524">risque contorno final; instale filetes laterais e fure dots</text>
   <rect id="svg_48" vector-effect="non-scaling-stroke" stroke="#ddd" fill="#fff" class="labelbox" rx="4" height="20" width="360" y="500" x="460"/>
   <text id="svg_49" stroke-width="2px" stroke="#fff" paint-order="stroke fill" fill="#333" class="note" y="514" x="468">lixe até nivelar com a face; pronto para colagem ao braço</text>
  </g>
 </g>
</svg>