<svg width="900" height="700" xmlns="http://www.w3.org/2000/svg">
 <defs>
  <marker orient="auto-start-reverse" markerHeight="6" markerWidth="6" refY="5" refX="5" viewBox="0 0 10 10" id="arrow-action">
   <path id="svg_1" fill="#5c5146" d="m0,1l10,4l-10,4l0,-8z"/>
  </marker>
  <marker orient="auto-start-reverse" markerHeight="6" markerWidth="6" refY="5" refX="5" viewBox="0 0 10 10" id="arrow-alert">
   <path id="svg_2" fill="#d9534f" d="m0,1l10,4l-10,4l0,-8z"/>
  </marker>
 </defs>
 <g>
  <title>Layer 1</title>
  <rect id="svg_3" fill="#fdfaf3" class="bg-canvas" height="700" width="900"/>
  <text id="svg_4" fill="#4a3e3d" font-weight="bold" font-size="20px" font-family="'Helvetica Neue', Helvetica, Arial, sans-serif" class="text-main-title" y="45" x="30">Nivelamento da Escala — Guia Técnico Visual</text>
  <line id="svg_5" stroke-width="1.2" stroke="#c8bca6" y2="58" x2="870" y1="58" x1="30"/>
  <g id="svg_6">
   <rect id="svg_7" x="30" y="80" rx="8" stroke-width="1.5" stroke="#c8bca6" fill="#ffffff" class="bg-panel" height="260" width="405"/>
   <text id="svg_8" fill="#5c5146" font-weight="bold" font-size="16px" font-family="'Helvetica Neue', Helvetica, Arial, sans-serif" class="text-step-title" y="110" x="50">1) Malha de Lápis (Vista Superior)</text>
   <rect id="svg_9" stroke="#c2996e" fill="#e5c199" class="wood-light" rx="2" height="50" width="280" y="195" x="60"/>
   <polygon id="svg_10" stroke="#c2996e" fill="#e5c199" class="wood-light" points="60,195 45,185 45,255 60,245 "/>
   <rect id="svg_11" stroke="#261a13" fill="#3d2b1f" class="escala-dark" rx="3" height="60" width="260" y="190" x="70"/>
   <line id="svg_12" stroke="#261a13" class="fret-slot" y2="250" x2="105" y1="190" x1="105"/>
   <line id="svg_13" stroke="#261a13" class="fret-slot" y2="250" x2="135" y1="190" x1="135"/>
   <line id="svg_14" stroke="#261a13" class="fret-slot" y2="250" x2="163" y1="190" x1="163"/>
   <line id="svg_15" stroke="#261a13" class="fret-slot" y2="250" x2="189" y1="190" x1="189"/>
   <line id="svg_16" stroke="#261a13" class="fret-slot" y2="250" x2="213" y1="190" x1="213"/>
   <line id="svg_17" stroke="#261a13" class="fret-slot" y2="250" x2="235" y1="190" x1="235"/>
   <line id="svg_18" stroke="#261a13" class="fret-slot" y2="250" x2="255" y1="190" x1="255"/>
   <line id="svg_19" stroke="#261a13" class="fret-slot" y2="250" x2="273" y1="190" x1="273"/>
   <line id="svg_20" stroke="#261a13" class="fret-slot" y2="250" x2="290" y1="190" x1="290"/>
   <line id="svg_21" stroke="#261a13" class="fret-slot" y2="250" x2="305" y1="190" x1="305"/>
   <g id="svg_22" fill="none" stroke-width="1.5" stroke="#d9534f" opacity="0.9" class="pencil-marks">
    <path id="svg_23" stroke-dasharray="3,3" d="m75,195l95,50m-95,0l95,-50"/>
    <path id="svg_24" stroke-dasharray="3,3" d="m170,195l70,50m-70,0l70,-50"/>
    <path id="svg_25" stroke-dasharray="3,3" d="m240,195l85,50m-85,0l85,-50"/>
   </g>
   <text id="svg_26" fill="#6b5b52" font-size="12px" font-family="'Helvetica Neue', Helvetica, Arial, sans-serif" text-anchor="middle" class="text-label" y="315" x="232">
    <tspan id="svg_27" dy="0" x="210">Marque toda a face; sumiço homogêneo</tspan>
    <tspan id="svg_28" dy="18" x="210">revela nivelamento plano.</tspan>
   </text>
  </g>
  <g id="svg_29">
   <rect id="svg_30" x="452" y="87" rx="8" stroke-width="1.5" stroke="#c8bca6" fill="#ffffff" class="bg-panel" height="260" width="405"/>
   <text id="svg_31" fill="#5c5146" font-weight="bold" font-size="16px" font-family="'Helvetica Neue', Helvetica, Arial, sans-serif" class="text-step-title" y="110" x="485">2) Taco Longo &amp; Passadas Paraleas</text>
   <path id="svg_32" stroke="#c2996e" fill="#e5c199" class="wood-light" d="m495,230l290,0l0,25l-290,0l0,-25z"/>
   <rect id="svg_33" stroke="#261a13" fill="#3d2b1f" class="escala-dark" rx="1.5" height="8" width="270" y="222" x="505"/>
   <rect id="svg_34" stroke-width="1.5" stroke="#78828c" fill="#e0e0e0" rx="3" height="55" width="160" y="160" x="565"/>
   <text id="svg_35" text-anchor="middle" fill="#6b5b52" font-size="12px" font-family="'Helvetica Neue', Helvetica, Arial, sans-serif" font-weight=" bold" class="text-label" y="192" x="645">Taco Rígido ~35 cm</text>
   <rect id="svg_36" rx="1.5" fill="#a0a0a0" height="5" width="160" y="212" x="565"/>
   <line id="svg_37" stroke-linecap="round" fill="#5c5146" stroke-width="1.8" stroke="#5c5146" marker-start="url(#arrow-action)" marker-end="url(#arrow-action)" class="seta-ação" y2="218" x2="745" y1="218" x1="545"/>
   <g id="svg_38">
    <circle id="svg_39" fill="#d9534f" class="alerta" r="10" cy="190" cx="765"/>
    <text id="svg_40" text-anchor="middle" font-weight="bold" fill="#ffffff" font-family="'Helvetica Neue', Helvetica, Arial, sans-serif" font-size="11px" class="text-badge" y="194" x="765">!</text>
   </g>
   <text id="svg_41" fill="#6b5b52" font-size="12px" font-family="'Helvetica Neue', Helvetica, Arial, sans-serif" text-anchor="middle" class="text-label" y="312" x="742">
    <tspan id="svg_42" dy="0" x="640">Passadas Retas e Longas.</tspan>
    <tspan id="svg_43" dy="18" x="640">
     <tspan id="svg_44" font-weight="bold" fill="#d9534f" class="text-highlight">NÃO "ROCKEEAR"</tspan>o taco nas quinas!</tspan>
   </text>
  </g>
  <g id="svg_45">
   <rect id="svg_46" x="30" y="370" rx="8" stroke-width="1.5" stroke="#c8bca6" fill="#ffffff" class="bg-panel" height="260" width="405"/>
   <text id="svg_47" fill="#5c5146" font-weight="bold" font-size="16px" font-family="'Helvetica Neue', Helvetica, Arial, sans-serif" class="text-step-title" y="400" x="50">3) Checagem de Precisão</text>
   <path id="svg_48" stroke="#c2996e" fill="#e5c199" class="wood-light" d="m60,520l290,0l0,25l-290,0l0,-25z"/>
   <rect id="svg_49" stroke="#261a13" fill="#3d2b1f" class="escala-dark" rx="1.5" height="8" width="270" y="512" x="70"/>
   <rect id="svg_50" stroke-width="1.5" stroke="#78828c" fill="#b0b8c0" class="metal-tool" rx="1" height="15" width="230" y="500" x="90"/>
   <line id="svg_51" stroke-dasharray="4,4" stroke="#d9534f" class="guia-dotted" y2="515" x2="320" y1="515" x1="90"/>
   <path id="svg_52" fill="#d9534f" stroke-width="1.5" stroke="#d9534f" marker-end="url(#arrow-alert)" class="seta-alerta" d="m205,515l0,25"/>
   <text id="svg_53" font-size="12px" font-family="'Helvetica Neue', Helvetica, Arial, sans-serif" font-weight="bold" fill="#6b5b52" text-anchor="middle" class="text-label" y="555" x="205">
    <tspan id="svg_54" dy="0" x="140">Contato Total;</tspan>
    <tspan id="svg_55" dy="15" x="140">Zero micro-folgas.</tspan>
   </text>
   <text id="svg_56" fill="#6b5b52" font-size="12px" font-family="'Helvetica Neue', Helvetica, Arial, sans-serif" text-anchor="middle" class="text-label" y="599" x="284">
    <tspan id="svg_57" dy="0" x="162">Régua de Precisão confere a retidão.</tspan>
    <tspan id="svg_58" dy="18" x="162">Confirme o plano após subir o grão.</tspan>
   </text>
  </g>
  <g id="svg_59">
   <rect id="svg_60" x="458" y="366" rx="8" stroke-width="1.5" stroke="#c8bca6" fill="#ffffff" class="bg-panel" height="260" width="405"/>
   <text id="svg_61" fill="#5c5146" font-weight="bold" font-size="16px" font-family="'Helvetica Neue', Helvetica, Arial, sans-serif" class="text-step-title" y="396" x="485">4) Reabrir Profundidade dos Slots</text>
   <path id="svg_62" stroke="#261a13" fill="#3d2b1f" class="escala-dark" d="m515,486l270,0l0,40l-270,0l0,-40z"/>
   <path id="svg_63" stroke="#150500" fill="#201005" d="m645,486l15,0l0,40l-15,0l0,-40z"/>
   <rect id="svg_64" stroke-width="1.5" stroke="#78828c" fill="#b0b8c0" class="metal-tool" rx="1.5" height="60" width="15" y="426" x="645"/>
   <rect id="svg_65" fill="#606060" height="4" width="15" y="484" x="645"/>
   <line id="svg_66" stroke-dasharray="4,4" stroke="#d9534f" class="guia-dotted" y2="526" x2="675" y1="486" x1="675"/>
   <line id="svg_67" fill="#d9534f" stroke-width="1.5" stroke="#d9534f" marker-end="url(#arrow-alert)" marker-start="url(#arrow-alert)" class="seta-alerta" y2="506" x2="660" y1="506" x1="675"/>
   <rect id="svg_68" rx="4" fill="#f0ad4e" height="30" width="140" y="491" x="695"/>
   <text id="svg_69" text-anchor="middle" font-size="11px" font-family="'Helvetica Neue', Helvetica, Arial, sans-serif" font-weight="bold" fill="#ffffff" class="text-badge" y="511" x="765">DEIXAR: 0.5–0.8 mm</text>
   <text id="svg_70" text-anchor="middle" fill="#6b5b52" font-family="'Helvetica Neue', Helvetica, Arial, sans-serif" font-size="12px" class="text-label" y="542" x="769">Folga além da Tang</text>
   <text id="svg_71" fill="#6b5b52" font-size="12px" font-family="'Helvetica Neue', Helvetica, Arial, sans-serif" text-anchor="middle" class="text-label" y="601" x="667">
    <tspan id="svg_72" dy="0" x="575">Confira profundidade real após nivelar.</tspan>
    <tspan id="svg_73" dy="18" x="575">Evite traste "alto" por tang sem folga.</tspan>
   </text>
  </g>
 </g>
</svg>