<svg width="880" height="400" xmlns="http://www.w3.org/2000/svg" font-size="12" font-family="system-ui,Segoe UI,Roboto,Arial">
 <defs>
  <marker orient="auto" refY="3" refX="5" markerHeight="6" markerWidth="6" id="a">
   <polygon id="svg_1" fill="#666" points="0,0 6,3 0,6"/>
  </marker>
 </defs>
 <!-- Moldura geral -->
 <!-- A) Ensaio a seco (explodido) -->
 <!-- B) Colagem e prensagem -->
 <!-- C) Pós-cura -->
 <g>
  <title>Layer 1</title>
  <path id="svg_2" d="m20,32c0,-6.52055 5.47945,-12 12,-12l816,0c6.52055,0 12,5.47945 12,12l0,336c0,6.52055 -5.47945,12 -12,12l-816,0c-6.52055,0 -12,-5.47945 -12,-12l0,-336z" opacity="undefined" stroke-width="2" stroke="#c8b596" fill="#f6f1e7"/>
  <text id="svg_3" font-weight="700" fill="#222" class="title" y="48" x="40">Colagem do headstock a 15° — tacos e grampos</text>
  <text id="svg_4" font-weight="700" fill="#222" class="title" y="78" x="40">1) Ensaio a seco (ajuste e alinhamento)</text>
  <g stroke="null" id="svg_5">
   <!-- Corpo (chanfro) -->
   <polygon stroke="#c7ae83" id="svg_6" stroke-width="2" fill="#fff" class="board" points="40,106.94999406297939 300,106.94999406297939 360,151.34999697561034 100,151.34999697561034 "/>
   <!-- Grã -->
   <line stroke="#8a623f" id="svg_7" stroke-width="2" class="grain" y2="143.95" x2="64" y1="114.35" x1="64"/>
   <line stroke="#8a623f" id="svg_8" stroke-width="2" class="grain" y2="143.95" x2="88" y1="114.35" x1="88"/>
   <line stroke="#8a623f" id="svg_9" stroke-width="2" class="grain" y2="143.95" x2="112" y1="114.35" x1="112"/>
   <line stroke="#8a623f" id="svg_10" stroke-width="2" class="grain" y2="143.95" x2="136" y1="114.35" x1="136"/>
   <line stroke="#8a623f" id="svg_11" stroke-width="2" class="grain" y2="143.95" x2="160" y1="114.35" x1="160"/>
   <line stroke="#8a623f" id="svg_12" stroke-width="2" class="grain" y2="143.95" x2="184" y1="114.35" x1="184"/>
   <line stroke="#8a623f" id="svg_13" stroke-width="2" class="grain" y2="143.95" x2="208" y1="114.35" x1="208"/>
   <line stroke="#8a623f" id="svg_14" stroke-width="2" class="grain" y2="143.95" x2="232" y1="114.35" x1="232"/>
   <line stroke="#8a623f" id="svg_15" stroke-width="2" class="grain" y2="143.95" x2="256" y1="114.35" x1="256"/>
   <line stroke="#8a623f" id="svg_16" stroke-width="2" class="grain" y2="143.95" x2="280" y1="114.35" x1="280"/>
   <!-- Peça da mão (invertida) -->
   <polygon stroke="#c7ae83" id="svg_17" stroke-width="2" fill="#fff" class="board" points="300,106.94999406297939 360,151.34999697561034 360,203.15000271146528 300,158.74999979883432 "/>
   <line stroke="#8a623f" id="svg_18" stroke-width="2" class="grain" y2="195.75" x2="312" y1="118.05" x1="312"/>
   <line stroke="#8a623f" id="svg_19" stroke-width="2" class="grain" y2="199.45" x2="326" y1="127.3" x1="326"/>
   <line stroke="#8a623f" id="svg_20" stroke-width="2" class="grain" y2="203.15" x2="340" y1="136.55" x1="340"/>
   <!-- Plano de cola -->
   <line stroke="#e59a9a" id="svg_21" fill="#fde6e6" class="glue" y2="151.35" x2="360" y1="106.95" x1="300"/>
   <!-- Setas aproximando (ensaio a seco) -->
   <line stroke="#666" id="svg_22" marker-end="url(#a)" stroke-width="2" class="arrow" y2="94" x2="222" y1="94" x1="172"/>
   <line stroke="#666" id="svg_23" marker-end="url(#a)" stroke-width="2" class="arrow" y2="177.7" x2="178" y1="177.7" x1="218"/>
   <!-- Rótulo -->
   <rect stroke="#ddd" id="svg_24" fill="#fff" class="labelbox" rx="4" height="16.65" width="380.99999" y="199.35" x="33"/>
   <text stroke="null" transform="matrix(1 0 0 0.925 0 18.15)" id="svg_25" fill="#333" class="note" y="209.97297" x="37">Ajuste sequência/posição dos grampos e tacos ANTES de aplicar cola.</text>
  </g>
  <text id="svg_26" font-weight="700" fill="#222" class="title" y="68" x="459">2) Colagem e prensagem</text>
  <g id="svg_27">
   <!-- Conjunto colado -->
   <polygon id="svg_28" stroke-width="2" stroke="#c7ae83" fill="#fff" class="board" points="455,140 715,140 775,188 515,188 "/>
   <polygon id="svg_29" stroke-width="2" stroke="#c7ae83" fill="#fff" class="board" points="715,140 775,188 775,244 715,196 "/>
   <line id="svg_30" stroke="#e59a9a" fill="#fde6e6" class="glue" y2="188" x2="775" y1="140" x1="715"/>
   <!-- Papel antiaderente -->
   <rect id="svg_31" stroke="#ddd" fill="#f7f7f7" height="10" width="300" y="198" x="465"/>
   <rect id="svg_32" stroke="#ddd" fill="#f7f7f7" height="10" width="300" y="120" x="465"/>
   <rect stroke="#ddd" id="svg_33" fill="#fff" class="labelbox" rx="4" height="16" width="169" y="78" x="578"/>
   <text id="svg_34" fill="#555" class="hint" y="90" x="585">papel antiaderente nos tacos</text>
   <!-- Taco inferior (plano) -->
   <rect id="svg_35" stroke-width="2" stroke="#7aa1d1" fill="#e7efff" class="caul" height="16" width="320" y="208" x="455"/>
   <!-- Taco superior em cunha (~15°) -->
   <polygon id="svg_36" stroke-width="2" stroke="#c7ae83" fill="#ead9bc" class="wedge" points="455,120 775,120 775,136 455,148 "/>
   <!-- Grampos (representação) -->
   <rect id="svg_37" stroke-dasharray="4" stroke-width="2" stroke="#666" class="press" height="120" width="10" y="104" x="495"/>
   <rect id="svg_38" stroke-dasharray="4" stroke-width="2" stroke="#666" class="press" height="120" width="10" y="104" x="595"/>
   <rect id="svg_39" stroke-dasharray="4" stroke-width="2" stroke="#666" class="press" height="120" width="10" y="104" x="695"/>
   <!-- Setas de pressão -->
   <line id="svg_40" marker-end="url(#a)" stroke-width="2" stroke="#666" class="arrow" y2="114" x2="500" y1="100" x1="500"/>
   <line id="svg_41" marker-end="url(#a)" stroke-width="2" stroke="#666" class="arrow" y2="114" x2="600" y1="100" x1="600"/>
   <line id="svg_42" marker-end="url(#a)" stroke-width="2" stroke="#666" class="arrow" y2="114" x2="700" y1="100" x1="700"/>
   <!-- Rótulos -->
   <rect stroke="#ddd" id="svg_43" fill="#fff" class="labelbox" rx="4" height="18" width="260.99999" y="238" x="455"/>
   <text id="svg_44" fill="#333" class="note" y="251" x="462">Distribua a pressão do centro para as bordas.</text>
   <rect stroke="#ddd" id="svg_45" fill="#fff" class="labelbox" rx="4" height="18" width="162" y="261" x="458"/>
   <text id="svg_46" fill="#333" class="note" y="273" x="467">remova o excesso de cola</text>
  </g>
  <text id="svg_47" font-weight="700" fill="#222" class="title" y="244" x="40">3) Pós-cura e limpeza</text>
  <g id="svg_48">
   <!-- Conjunto pronto -->
   <polygon id="svg_49" stroke-width="2" stroke="#c7ae83" fill="#fff" class="board" points="50,258 310,258 370,306 110,306 "/>
   <polygon id="svg_50" stroke-width="2" stroke="#c7ae83" fill="#fff" class="board" points="310,258 370,306 370,338 310,290 "/>
   <line id="svg_51" stroke="#e59a9a" fill="#fde6e6" class="glue" y2="306" x2="370" y1="258" x1="310"/>
   <!-- Raspilha / formão para cola -->
   <rect stroke="#ddd" id="svg_52" fill="#fff" class="labelbox" rx="4" height="16" width="233.99999" y="319" x="90"/>
   <text id="svg_53" fill="#333" class="note" y="331" x="102">raspe a cola após a cura (12–24 h)</text>
  </g>
 </g>
</svg>