<svg width="880" height="540" xmlns="http://www.w3.org/2000/svg" aria-label="Seladora e pore fill: poro aberto x fechado, métodos e compatibilidade" role="img">
 <defs>
  <marker orient="auto" refY="4" refX="7" markerHeight="8" markerWidth="8" id="arr">
   <polygon id="svg_1" fill="#444" points="0,0 8,4 0,8"/>
  </marker>
 </defs>
 <!-- 1) Poro fechado (tampo) vs aberto (fundo/laterais) -->
 <!-- 2) Métodos de pore fill -->
 <!-- 3) Fluxo e compatibilidade -->
 <!-- 4) Erros comuns -->
 <!-- 5) Dicas -->
 <g>
  <title>Layer 1</title>
  <rect id="svg_2" vector-effect="non-scaling-stroke" stroke-width="2" stroke="#d1c3a0" fill="#faf7f1" class="panel" rx="12" height="500" width="840" y="20" x="20"/>
  <text id="svg_3" stroke-width="2px" stroke="#fff" paint-order="stroke fill" fill="#222" font="700 14px system-ui,Segoe UI,Roboto,Arial" class="h" y="48" x="40">Seladora e pore fill — poro aberto x fechado, métodos e compatibilidade</text>
  <text font-weight="bold" id="svg_4" stroke-width="2px" stroke="#fff" paint-order="stroke fill" fill="#222" font="700 14px system-ui,Segoe UI,Roboto,Arial" class="h" y="79" x="40">1) Onde aplicar</text>
  <g stroke="null" id="svg_5">
   <rect stroke="#c9b28a" id="svg_6" vector-effect="non-scaling-stroke" fill="#fff" class="box" rx="6" height="162" width="359.00001" y="87" x="37"/>
   <text transform="matrix(0.997222 0 0 1 0.102777 0)" stroke="#fff" id="svg_7" stroke-width="2px" paint-order="stroke fill" fill="#333" font="12px system-ui,Segoe UI,Roboto,Arial" class="t" y="109" x="53">Tampo (abeto/cedro) — poro fechado</text>
   <rect stroke="#c9b28a" id="svg_8" vector-effect="non-scaling-stroke" fill="#f2e9da" height="36" width="327.0889" y="123" x="52.95556"/>
   <path stroke="#8a623f" id="svg_9" vector-effect="non-scaling-stroke" opacity="0.6" fill="none" class="grain" d="m56.94444,141c39.88889,-6 79.77778,-6 119.66667,0c39.88889,6 79.77778,6 119.66667,0"/>
   <rect stroke="#9ed3ab" id="svg_10" vector-effect="non-scaling-stroke" fill="#e6f7ec" class="ok" rx="4" height="22" width="83.76667" y="97" x="296.27778"/>
   <text transform="matrix(0.997222 0 0 1 0.102777 0)" stroke="#fff" id="svg_11" stroke-width="2px" paint-order="stroke fill" fill="#333" font="12px system-ui,Segoe UI,Roboto,Arial" class="t" text-anchor="middle" y="112" x="339">Selar leve</text>
   <text transform="matrix(0.814091 0 0 1.12309 11.1163 -24.7558)" stroke="#fff" id="svg_12" stroke-width="2px" paint-order="stroke fill" fill="#333" font="12px system-ui,Segoe UI,Roboto,Arial" class="t" y="196.77295" x="47.07657">Fundo/laterais (jacarandá/mogno) — poro aberto</text>
   <rect stroke="#c9b28a" id="svg_13" vector-effect="non-scaling-stroke" fill="#f2e9da" height="24" width="327.0889" y="209" x="48.95556"/>
   <!-- poros verticais -->
   <g stroke="#8a623f" id="svg_14" stroke-width="2" class="pore">
    <line stroke="null" id="svg_15" vector-effect="non-scaling-stroke" y2="230" x2="69.88889" y1="210" x1="69.88889"/>
    <line stroke="null" id="svg_16" vector-effect="non-scaling-stroke" y2="230" x2="87.83889" y1="210" x1="87.83889"/>
    <line stroke="null" id="svg_17" vector-effect="non-scaling-stroke" y2="230" x2="107.78334" y1="210" x1="107.78334"/>
    <line stroke="null" id="svg_18" vector-effect="non-scaling-stroke" y2="230" x2="131.71667" y1="210" x1="131.71667"/>
    <line stroke="null" id="svg_19" vector-effect="non-scaling-stroke" y2="230" x2="169.61111" y1="210" x1="169.61111"/>
    <line stroke="null" id="svg_20" vector-effect="non-scaling-stroke" y2="230" x2="205.51112" y1="210" x1="205.51112"/>
    <line stroke="null" id="svg_21" vector-effect="non-scaling-stroke" y2="230" x2="249.38889" y1="210" x1="249.38889"/>
    <line stroke="null" id="svg_22" vector-effect="non-scaling-stroke" y2="230" x2="297.25556" y1="210" x1="297.25556"/>
    <line stroke="null" id="svg_23" vector-effect="non-scaling-stroke" y2="230" x2="339.1389" y1="210" x1="339.1389"/>
   </g>
   <rect stroke="#e0c562" id="svg_24" vector-effect="non-scaling-stroke" fill="#fff7d6" class="warn" rx="4" height="22" width="83.76667" y="182" x="306.27778"/>
   <text transform="matrix(0.997222 0 0 1 0.102777 0)" stroke="#fff" id="svg_25" stroke-width="2px" paint-order="stroke fill" fill="#333" font="12px system-ui,Segoe UI,Roboto,Arial" class="t" text-anchor="middle" y="198" x="346.0195">Pore fill</text>
  </g>
  <text font-weight="bold" id="svg_26" stroke-width="2px" stroke="#fff" paint-order="stroke fill" fill="#222" font="700 14px system-ui,Segoe UI,Roboto,Arial" class="h" y="75" x="427">2) Métodos</text>
  <g stroke="null" id="svg_27">
   <rect stroke="#c9b28a" id="svg_28" vector-effect="non-scaling-stroke" fill="#fff" class="box" rx="6" height="164" width="400.00002" y="86" x="420.99998"/>
   <g stroke="null" id="svg_29">
    <rect stroke="#c9b28a" id="svg_30" vector-effect="non-scaling-stroke" fill="#ece8df" class="chip" rx="6" height="112.45714" width="117.77778" y="102.4" x="434.33331"/>
    <text transform="matrix(1.11111 0 0 1.17143 -91.1112 -42.8571)" stroke="#fff" id="svg_31" stroke-width="2px" paint-order="stroke fill" fill="#333" font="12px system-ui,Segoe UI,Roboto,Arial" class="t" text-anchor="middle" y="142" x="525.9">Goma-laca +</text>
    <text transform="matrix(1.11111 0 0 1.17143 -91.1112 -42.8571)" stroke="#fff" id="svg_32" stroke-width="2px" paint-order="stroke fill" fill="#333" font="12px system-ui,Segoe UI,Roboto,Arial" class="t" text-anchor="middle" y="158" x="525.9">pedra-pomes</text>
    <path stroke="#444" id="svg_33" vector-effect="non-scaling-stroke" marker-end="url(#arr)" stroke-width="2" class="dim" d="m447.66665,184.4l91.11112,0"/>
    <text transform="matrix(0.881334 0 0 1.12983 20.6063 -33.7869)" stroke="#fff" id="svg_34" stroke-width="2px" paint-order="stroke fill" fill="#333" font="12px system-ui,Segoe UI,Roboto,Arial" class="t" y="212" x="488.9">muñequilla em 8</text>
   </g>
   <g stroke="null" id="svg_35">
    <rect stroke="#c9b28a" id="svg_36" vector-effect="non-scaling-stroke" fill="#ece8df" class="chip" rx="6" height="112.45714" width="117.77778" y="102.4" x="560.99999"/>
    <text transform="matrix(1.11111 0 0 1.17143 -91.1112 -42.8571)" stroke="#fff" id="svg_37" stroke-width="2px" paint-order="stroke fill" fill="#333" font="12px system-ui,Segoe UI,Roboto,Arial" class="t" text-anchor="middle" y="142" x="639.9">Filler</text>
    <text transform="matrix(1.11111 0 0 1.17143 -91.1112 -42.8571)" stroke="#fff" id="svg_38" stroke-width="2px" paint-order="stroke fill" fill="#333" font="12px system-ui,Segoe UI,Roboto,Arial" class="t" text-anchor="middle" y="158" x="639.9">base água</text>
    <path stroke="#444" id="svg_39" vector-effect="non-scaling-stroke" marker-end="url(#arr)" stroke-width="2" class="dim" d="m574.33332,184.4l91.11112,0"/>
    <text transform="matrix(0.891057 0 0 1.04664 40.9653 -15.6463)" stroke="#fff" id="svg_40" stroke-width="2px" paint-order="stroke fill" fill="#333" font="12px system-ui,Segoe UI,Roboto,Arial" class="t" y="212" x="602.9">espátula cruzada</text>
   </g>
   <g stroke="null" id="svg_41">
    <rect stroke="#c9b28a" id="svg_42" vector-effect="non-scaling-stroke" fill="#ece8df" class="chip" rx="6" height="112.45714" width="117.77778" y="102.4" x="687.66666"/>
    <text transform="matrix(1.11111 0 0 1.17143 -91.1112 -42.8571)" stroke="#fff" id="svg_43" stroke-width="2px" paint-order="stroke fill" fill="#333" font="12px system-ui,Segoe UI,Roboto,Arial" class="t" text-anchor="middle" y="142" x="753.9">Epóxi fino</text>
    <path stroke="#444" id="svg_44" vector-effect="non-scaling-stroke" marker-end="url(#arr)" stroke-width="2" class="dim" d="m700.99999,184.4l91.11112,0"/>
    <text transform="matrix(1.11111 0 0 1.17143 -91.1112 -42.8571)" stroke="#fff" id="svg_45" stroke-width="2px" paint-order="stroke fill" fill="#333" font="12px system-ui,Segoe UI,Roboto,Arial" class="t" y="212" x="716.9">rodo/raspila</text>
   </g>
  </g>
  <text font-weight="bold" id="svg_46" stroke-width="2px" stroke="#fff" paint-order="stroke fill" fill="#222" font="700 14px system-ui,Segoe UI,Roboto,Arial" class="h" y="318" x="42">3) Fluxo recomendado</text>
  <g stroke="null" id="svg_47">
   <rect stroke="#c9b28a" id="svg_48" vector-effect="non-scaling-stroke" fill="#fff" class="box" rx="6" height="152.00001" width="447.99997" y="328.99999" x="36"/>
   <text stroke="#fff" transform="matrix(0.831313 0 0 1.27123 0.138926 -109.875)" id="svg_49" stroke-width="2px" paint-order="stroke fill" fill="#333" font="12px system-ui,Segoe UI,Roboto,Arial" class="t" y="367" x="60.79847">Lixamento fino → Seladora leve (dewaxed) → Pore fill → Selagem leve → Topcoat</text>
   <rect stroke="#9ed3ab" id="svg_50" vector-effect="non-scaling-stroke" fill="#e6f7ec" class="ok" rx="4" height="39.08572" width="430.62856" y="370.25714" x="44.22857"/>
   <text stroke="#fff" transform="matrix(1.03832 0 0 1.08571 -4.31843 -41.2286)" id="svg_51" stroke-width="2px" paint-order="stroke fill" fill="#333" font="12px system-ui,Segoe UI,Roboto,Arial" class="t" text-anchor="middle" y="401" x="185">funciona com goma-laca, nitro, PU, água</text>
   <rect stroke="#e0c562" id="svg_52" vector-effect="non-scaling-stroke" fill="#fff7d6" class="warn" rx="4" height="33.65714" width="425.14285" y="418.02857" x="44.22857"/>
   <text stroke="#fff" transform="matrix(0.987867 0 0 1.26164 -1.03484 -119.79)" id="svg_53" stroke-width="2px" paint-order="stroke fill" fill="#333" font="12px system-ui,Segoe UI,Roboto,Arial" class="t" y="443" x="56">epóxi → selar com goma-laca descerada antes de nitro/PU</text>
  </g>
  <text transform="matrix(0.887226 0 0 0.894496 61.7999 31.0825)" stroke="#fff" font-weight="bold" id="svg_54" stroke-width="2px" paint-order="stroke fill" fill="#222" font="700 14px system-ui,Segoe UI,Roboto,Arial" class="h" y="313.35895" x="501.78857">4) Erros comuns</text>
  <g stroke="null" id="svg_55">
   <rect stroke="#c9b28a" id="svg_56" vector-effect="non-scaling-stroke" fill="#fff" class="box" rx="6" height="149" width="342" y="323" x="497.00001"/>
   <rect stroke="#e79a9a" id="svg_57" vector-effect="non-scaling-stroke" fill="#fde8e8" class="bad" rx="4" height="25.54286" width="309.32758" y="340.02858" x="512.20001"/>
   <text stroke="#fff" transform="matrix(0.95 0 0 1.06429 55.5656 -55.8857)" id="svg_58" stroke-width="2px" paint-order="stroke fill" fill="#333" font="12px system-ui,Segoe UI,Roboto,Arial" class="t" y="388" x="505">entupir poros do tampo (perde resposta)</text>
   <rect stroke="#e79a9a" id="svg_59" vector-effect="non-scaling-stroke" fill="#fde8e8" class="bad" rx="4" height="25.54286" width="311.6" y="385.13645" x="513.33622"/>
   <text stroke="#fff" transform="matrix(0.95 0 0 1.06429 70.3364 -47.8558)" id="svg_60" stroke-width="2px" paint-order="stroke fill" fill="#333" font="12px system-ui,Segoe UI,Roboto,Arial" class="t" y="422" x="505">filler espesso não lixado a plano (ondas)</text>
   <rect stroke="#e79a9a" id="svg_61" vector-effect="non-scaling-stroke" fill="#fde8e8" class="bad" rx="4" height="25.54286" width="311.6" y="430.24431" x="512.20001"/>
   <text stroke="#fff" transform="matrix(0.95 0 0 1.06429 39.6587 -55.8857)" id="svg_62" stroke-width="2px" paint-order="stroke fill" fill="#333" font="12px system-ui,Segoe UI,Roboto,Arial" class="t" y="472.76647" x="519.35216">incompatibilidade sem selagem intermediária</text>
  </g>
 </g>
</svg>