<svg width="880" height="300" xmlns="http://www.w3.org/2000/svg" font-family="system-ui,Segoe UI,Roboto,Arial" font-size="12">
 <defs>
  <marker id="a" markerWidth="6" markerHeight="6" refX="5" refY="3" orient="auto">
   <polygon points="0,0 6,3 0,6" fill="#666" id="svg_1"/>
  </marker>
 </defs>
 <!-- Moldura -->
 <!-- 1) Composição do bloco (coluna esquerda, topo) -->
 <!-- 3) Posicionamento e marcações (coluna direita, topo) -->
 <!-- 2) Altura relativa e chanfro do fundo (fileira inferior, toda a largura) -->
 <g>
  <title>Layer 1</title>
  <path stroke="#c8b596" id="svg_2" d="m20,27.45714c0,-4.05205 5.47945,-7.45714 12,-7.45714l816,0c6.52055,0 12,3.40509 12,7.45714l0,246.08571c0,4.05205 -5.47945,7.45714 -12,7.45714l-816,0c-6.52055,0 -12,-3.40509 -12,-7.45714l0,-246.08571z" opacity="undefined" stroke-width="2" fill="#f6f1e7"/>
  <text x="40" y="48" class="title" fill="#222" font-weight="700" id="svg_3">Taco do tróculo — composição, altura e posicionamento</text>
  <text x="40" y="78" class="title" fill="#222" font-weight="700" id="svg_4">1) Composição do bloco</text>
  <g id="svg_5">
   <!-- Peças (braço + 3 blocos de ~25 mm) -->
   <rect x="40" y="96" width="220" height="25" class="board" fill="#fff" stroke="#c7ae83" stroke-width="2" id="svg_6"/>
   <rect x="40" y="124" width="220" height="25" class="board" fill="#fff" stroke="#c7ae83" stroke-width="2" id="svg_7"/>
   <rect x="40" y="152" width="220" height="25" class="board" fill="#fff" stroke="#c7ae83" stroke-width="2" id="svg_8"/>
   <rect x="40" y="180" width="220" height="25" class="board" fill="#fff" stroke="#c7ae83" stroke-width="2" id="svg_9"/>
   <!-- Grã (espaçada) -->
   <line x1="58" y1="98" x2="58" y2="203" class="grain" stroke="#8a623f" stroke-width="2" id="svg_10"/>
   <line x1="88" y1="98" x2="88" y2="203" class="grain" stroke="#8a623f" stroke-width="2" id="svg_11"/>
   <line x1="118" y1="98" x2="118" y2="203" class="grain" stroke="#8a623f" stroke-width="2" id="svg_12"/>
   <line x1="148" y1="98" x2="148" y2="203" class="grain" stroke="#8a623f" stroke-width="2" id="svg_13"/>
   <line x1="178" y1="98" x2="178" y2="203" class="grain" stroke="#8a623f" stroke-width="2" id="svg_14"/>
   <line x1="208" y1="98" x2="208" y2="203" class="grain" stroke="#8a623f" stroke-width="2" id="svg_15"/>
   <line x1="238" y1="98" x2="238" y2="203" class="grain" stroke="#8a623f" stroke-width="2" id="svg_16"/>
   <!-- Cotas verticais -->
   <line x1="276" y1="96" x2="276" y2="205" class="dimthin" stroke="#999" stroke-dasharray="4" id="svg_17"/>
   <line x1="282" y1="96" x2="282" y2="121" class="dim" stroke="#666" stroke-width="1.5" marker-start="url(#a)" marker-end="url(#a)" id="svg_18"/>
   <line x1="282" y1="124" x2="282" y2="149" class="dim" stroke="#666" stroke-width="1.5" marker-start="url(#a)" marker-end="url(#a)" id="svg_19"/>
   <line x1="282" y1="152" x2="282" y2="177" class="dim" stroke="#666" stroke-width="1.5" marker-start="url(#a)" marker-end="url(#a)" id="svg_20"/>
   <line x1="282" y1="180" x2="282" y2="205" class="dim" stroke="#666" stroke-width="1.5" marker-start="url(#a)" marker-end="url(#a)" id="svg_21"/>
   <!-- Labels (desenhados por cima) -->
   <rect x="300" y="100" width="150" height="18" rx="4" class="labelbox" fill="#fff" stroke="#ddd" id="svg_22"/>
   <text x="308" y="113" class="note" fill="#333" id="svg_23">braço 25 mm</text>
   <rect x="300" y="128" width="150" height="18" rx="4" class="labelbox" fill="#fff" stroke="#ddd" id="svg_24"/>
   <text x="308" y="141" class="note" fill="#333" id="svg_25">bloco 25 mm</text>
   <rect x="300" y="156" width="150" height="18" rx="4" class="labelbox" fill="#fff" stroke="#ddd" id="svg_26"/>
   <text x="308" y="169" class="note" fill="#333" id="svg_27">bloco 25 mm</text>
   <rect x="300" y="184" width="150" height="18" rx="4" class="labelbox" fill="#fff" stroke="#ddd" id="svg_28"/>
   <text x="308" y="197" class="note" fill="#333" id="svg_29">bloco 25 mm</text>
   <rect x="40" y="214" width="330" height="18" rx="4" class="labelbox" fill="#fff" stroke="#ddd" id="svg_30"/>
   <text x="48" y="227" class="note" fill="#333" id="svg_31">Soma típica perto de 100 mm (ajuste por instrumento)</text>
  </g>
  <text x="460" y="78" class="title" fill="#222" font-weight="700" id="svg_32">2) Posicionamento e marcações</text>
  <g id="svg_33">
   <rect stroke="#ddd" x="464" y="85" width="376" height="18" rx="4" class="labelbox" fill="#fff" id="svg_42"/>
   <!-- braço + tróculo -->
   <rect x="456" y="131" width="300" height="28" class="board" fill="#fff" stroke="#c7ae83" stroke-width="2" id="svg_34"/>
   <rect x="699" y="130" width="96" height="80" class="board" fill="#fff" stroke-width="2" id="svg_35" stroke="#c7ae83"/>
   <!-- Linhas de referência -->
   <line x1="476" y1="131" x2="476" y2="221" class="centerline" stroke="#c33" stroke-width="2" stroke-dasharray="4" id="svg_36"/>
   <line x1="696" y1="131" x2="696" y2="221" class="centerline" stroke="#c33" stroke-width="2" stroke-dasharray="4" id="svg_37"/>
   <line x1="756" y1="135" x2="756" y2="221" class="centerline" stroke-width="2" stroke-dasharray="4" id="svg_38" stroke="#c33"/>
   <rect x="456" y="225" width="45" height="18" rx="4" class="labelbox" fill="#fff" id="svg_39" stroke="#ddd"/>
   <text x="465.22735" y="98" class="hint" fill="#555" id="svg_40" stroke="null" transform="matrix(0.929553 0 0 1 34.5466 2)">Marque no molde e transfira: nut → início do tróculo → junção com a caixa.</text>
   <text fill="#000000" stroke="null" x="468.99999" y="238.4" id="svg_58" stroke-width="0" text-anchor="start" xml:space="preserve">Nut</text>
   <rect stroke="#ddd" x="711" y="110" width="126.00001" height="18" rx="4" class="labelbox" fill="#fff" id="svg_59"/>
   <rect x="641" y="220" width="108" height="18" rx="4" class="labelbox" fill="#fff" id="svg_62" stroke="#ddd"/>
   <text fill="#000000" x="660.80705" y="237.50123" id="svg_63" stroke-width="0" text-anchor="start" xml:space="preserve" stroke="#ddd" transform="matrix(1.00123 0 0 0.793801 -5.13431 44.285)">início do tróculo</text>
   <text transform="matrix(0.71962 0 0 1.06306 191.106 -3.57165)" stroke="#ddd" xml:space="preserve" text-anchor="start" id="svg_41" y="118.90725" x="735.01096" stroke-width="0" fill="#000000">Marcação Slot junção caixa</text>
  </g>
 </g>
</svg>