<svg width="880" height="500" xmlns="http://www.w3.org/2000/svg" font-size="12" font-family="system-ui,Segoe UI,Roboto,Arial">
 <defs>
  <marker orient="auto" refY="3" refX="5" markerHeight="6" markerWidth="6" id="a">
   <polygon id="svg_1" fill="#666" points="0,0 6,3 0,6"/>
  </marker>
 </defs>
 <!-- Moldura -->
 <!-- 1) Fabricação -->
 <!-- 2) Chapas de realce -->
 <!-- 3) Colagem -->
 <g>
  <title>Layer 1</title>
  <path stroke="#c8b596" id="svg_2" d="m20,32.76364c0,-6.93549 5.47945,-12.76364 12,-12.76364l816,0c6.52055,0 12,5.82814 12,12.76364l0,442.47271c0,6.93549 -5.47945,12.76364 -12,12.76364l-816,0c-6.52055,0 -12,-5.82814 -12,-12.76364l0,-442.47271z" opacity="undefined" stroke-width="2" fill="#f6f1e7"/>
  <text id="svg_3" font-weight="700" fill="#222" class="title" y="48" x="40">Soleta (headplate) — fabricação e colagem no headstock</text>
  <text id="svg_4" font-weight="700" fill="#222" class="title" y="78" x="40">1) Fabricação da soleta (bookmatch + adorno central)</text>
  <g stroke="null" id="svg_5">
   <rect stroke="#c7ae83" id="svg_6" stroke-width="2" fill="#fff" class="board" height="90" width="158.26839" y="120" x="32"/>
   <rect stroke="#c7ae83" id="svg_7" stroke-width="2" fill="#fff" class="board" height="90" width="158.26839" y="120" x="210.05194"/>
   <rect stroke="null" id="svg_8" fill="#222" class="purf" height="90" width="19.78355" y="120" x="190.26839"/>
   <line stroke="#8a623f" id="svg_9" stroke-width="2" class="grain" y2="204" x2="55.74026" y1="126" x1="55.74026"/>
   <line stroke="#8a623f" id="svg_10" stroke-width="2" class="grain" y2="204" x2="85.41558" y1="126" x1="85.41558"/>
   <line stroke="#8a623f" id="svg_11" stroke-width="2" class="grain" y2="204" x2="115.09091" y1="126" x1="115.09091"/>
   <line stroke="#8a623f" id="svg_12" stroke-width="2" class="grain" y2="204" x2="144.76623" y1="126" x1="144.76623"/>
   <line stroke="#8a623f" id="svg_13" stroke-width="2" class="grain" y2="204" x2="233.7922" y1="126" x1="233.7922"/>
   <line stroke="#8a623f" id="svg_14" stroke-width="2" class="grain" y2="204" x2="263.46753" y1="126" x1="263.46753"/>
   <line stroke="#8a623f" id="svg_15" stroke-width="2" class="grain" y2="204" x2="293.14285" y1="126" x1="293.14285"/>
   <line stroke="#8a623f" id="svg_16" stroke-width="2" class="grain" y2="204" x2="322.81817" y1="126" x1="322.81817"/>
   <line stroke="#c33" id="svg_17" stroke-dasharray="4" stroke-width="2" class="centerline" y2="218" x2="200.16017" y1="112" x1="200.16017"/>
   <line stroke="#999" id="svg_19" stroke-dasharray="4" class="dimthin" y2="132" x2="483.06492" y1="120" x1="483.06492"/>
   <line stroke="#666" id="svg_20" marker-end="url(#a)" marker-start="url(#a)" stroke-width="1.5" class="dim" y2="132" x2="488.99999" y1="120" x1="488.99999"/>
   <rect stroke="#ddd" id="svg_21" fill="#fff" class="labelbox" rx="4" height="22" width="168.16017" y="92" x="45.84848"/>
   <text transform="matrix(0.989177 0 0 1 0.346321 0)" stroke="null" id="svg_22" fill="#333" class="note" y="107" x="54">espessura final 2,5–3,0 mm</text>
   <rect stroke="#ddd" id="svg_23" fill="#fff" class="labelbox" rx="4" height="32" width="326.42856" y="220" x="32"/>
   <text transform="matrix(0.989177 0 0 1 0.346321 0)" stroke="null" id="svg_24" fill="#333" class="note" y="233" x="40">metades espelhadas;</text>
   <text transform="matrix(0.989177 0 0 1 0.346321 0)" stroke="null" id="svg_25" fill="#333" class="note" y="248" x="40">adorno central alinhado à linha de centro</text>
  </g>
  <text id="svg_26" font-weight="700" fill="#222" class="title" y="82" x="460">2) Chapas de realce (opcional)</text>
  <g id="svg_27">
   <rect id="svg_28" stroke-width="2" stroke="#c7ae83" fill="#fff" class="board" height="90" width="260" y="112" x="455"/>
   <rect id="svg_29" stroke="#bbb" fill="#fff" class="veneer1" height="4" width="260" y="206" x="455"/>
   <rect id="svg_30" stroke="#555" fill="#000" class="veneer2" height="3" width="260" y="212" x="455"/>
   <rect id="svg_31" stroke="#bbb" fill="#fff" class="veneer1" height="4" width="260" y="217" x="455"/>
   <rect id="svg_32" stroke-width="2" stroke="#7aa1d1" fill="#e7efff" class="caul" height="10" width="272" y="96" x="449"/>
   <rect id="svg_33" stroke-width="2" stroke="#7aa1d1" fill="#e7efff" class="caul" height="10" width="272" y="228" x="449"/>
   <rect id="svg_34" opacity="0.95" stroke="#bbb" fill="#ffffff" class="paper" height="6" width="264" y="106" x="453"/>
   <rect id="svg_35" opacity="0.95" stroke="#bbb" fill="#ffffff" class="paper" height="6" width="264" y="228" x="453"/>
   <rect stroke="#ddd" id="svg_36" fill="#fff" class="labelbox" rx="4" height="22" width="366.00001" y="244" x="455"/>
   <text id="svg_37" fill="#333" class="note" y="258" x="458">chapas de cor por trás (ex.: branco/preto/branco) e prensagem plana</text>
  </g>
  <text id="svg_38" font-weight="700" fill="#222" class="title" y="284" x="40">3) Colagem da soleta no headstock</text>
  <g id="svg_39">
   <rect id="svg_40" stroke-width="2" stroke="#c7ae83" fill="#fff" class="board" height="120" width="360" y="330" x="52"/>
   <line id="svg_41" stroke-dasharray="4" stroke-width="2" stroke="#c33" class="centerline" y2="450" x2="232" y1="330" x1="232"/>
   <line id="svg_42" stroke-dasharray="4" stroke="#999" class="dimthin" y2="330" x2="412" y1="330" x1="52"/>
   <rect id="svg_43" stroke="#ddd" fill="#fff" class="labelbox" rx="4" height="18" width="120" y="299" x="54"/>
   <text id="svg_44" fill="#333" class="note" y="312" x="56">nut (referência a 90°)</text>
   <rect id="svg_45" stroke-width="2" stroke="#c7ae83" fill="#fff" class="board" height="90" width="300" y="335" x="91"/>
   <rect id="svg_46" fill="#222" class="purf" height="90" width="10" y="334" x="237"/>
   <line id="svg_47" marker-end="url(#a)" marker-start="url(#a)" stroke-width="1.5" stroke="#666" class="dim" y2="334" x2="104" y1="334" x1="92"/>
   <text id="svg_49" fill="#333" class="note" y="330" x="116">opcional: avançar cerca de 3 mm para acertar depois</text>
   <rect id="svg_50" stroke-width="2" stroke="#7aa1d1" fill="#e7efff" class="caul" height="8" width="316" y="322" x="84"/>
   <rect id="svg_51" stroke-width="2" stroke="#7aa1d1" fill="#e7efff" class="caul" height="8" width="316" y="426" x="84"/>
   <rect id="svg_52" opacity="0.95" stroke="#bbb" fill="#ffffff" class="paper" height="4" width="308" y="322" x="88"/>
   <rect id="svg_53" opacity="0.95" stroke="#bbb" fill="#ffffff" class="paper" height="4" width="308" y="426" x="88"/>
   <rect stroke="#ddd" id="svg_54" fill="#fff" class="labelbox" rx="4" height="20" width="340" y="458" x="52"/>
   <text id="svg_55" fill="#333" class="note" y="471" x="60">alinhe pela linha de centro; pressão do centro para as bordas</text>
  </g>
 </g>
</svg>