<svg width="880" height="520" xmlns="http://www.w3.org/2000/svg" aria-label="Lixamento progressivo: sequência de grãos, mapa a lápis, direção da fibra e bordas" role="img">
 <defs>
  <marker orient="auto" refY="4" refX="7" markerHeight="8" markerWidth="8" id="arr">
   <polygon id="svg_1" fill="#444" points="0,0 8,4 0,8"/>
  </marker>
 </defs>
 <!-- 1) Mapa a lápis + direção da fibra -->
 <!-- 2) Sequência de grãos -->
 <!-- 3) Bordas & filetes -->
 <!-- 4) Cola na roseta / limpeza -->
 <!-- 5) Levantar fibra -->
 <g>
  <title>Layer 1</title>
  <rect id="svg_2" vector-effect="non-scaling-stroke" stroke-width="2" stroke="#d1c3a0" fill="#faf7f1" class="panel" rx="12" height="480" width="840" y="20" x="20"/>
  <text style="cursor: move;" font-weight="bold" id="svg_3" stroke-width="2px" stroke="#fff" paint-order="stroke fill" fill="#222" font="700 14px system-ui,Segoe UI,Roboto,Arial" class="h" y="40" x="38">Lixamento progressivo — mapa, grãos e cuidados de bordas</text>
  <text transform="matrix(0.82423 0 0 0.894654 6.82844 3.26453)" stroke="#fff" font-weight="bold" id="svg_4" stroke-width="2px" paint-order="stroke fill" fill="#222" font="700 14px system-ui,Segoe UI,Roboto,Arial" class="h" y="79" x="38">1) Mapa a lápis &amp; direção da fibra</text>
  <g stroke="null" id="svg_5">
   <rect stroke="#c9b28a" id="svg_6" vector-effect="non-scaling-stroke" fill="#fff" class="box" rx="6" height="145.65531" width="351.00002" y="81" x="34"/>
   <!-- fibras -->
   <path stroke="#865f3c" id="svg_7" vector-effect="non-scaling-stroke" opacity="0.7" fill="none" class="grain" d="m41.8,133.01975c50.7,-10.40395 128.70001,12.48474 206.70001,-6.24237c78,-16.64632 117.00001,12.48474 128.70001,4.16158"/>
   <!-- mapa a lápis -->
   <g stroke="null" id="svg_8" opacity="0.9">
    <path stroke="#777" id="svg_9" vector-effect="non-scaling-stroke" stroke-width="1.2" fill="none" class="pencil" d="m45.7,95.56553l327.60002,0m-327.60002,12.48474l327.60002,0m-327.60002,12.48474l327.60002,0m-327.60002,12.48474l327.60002,0m-327.60002,12.48474l327.60002,0m-327.60002,12.48474l327.60002,0m-327.60002,12.48474l327.60002,0"/>
   </g>
   <!-- setas sentido -->
   <line stroke="#444" id="svg_10" vector-effect="non-scaling-stroke" marker-end="url(#arr)" stroke-width="2" class="dim" y2="216.25136" x2="190.00001" y1="216.25136" x1="73"/>
   <line stroke="#444" id="svg_11" vector-effect="non-scaling-stroke" marker-end="url(#arr)" stroke-width="2" class="dim" y2="216.25136" x2="346.00002" y1="216.25136" x1="229.00001"/>
   <text stroke="#fff" transform="matrix(0.975 0 0 1.0404 0.9289 13.2626)" id="svg_12" stroke-width="2px" paint-order="stroke fill" fill="#333" font="12px system-ui,Segoe UI,Roboto,Arial" class="t" y="211.10739" x="75.91908">lixar com a fibra (passadas longas)</text>
  </g>
  <text transform="matrix(0.837197 0 0 0.777483 78.3708 11.8953)" stroke="#fff" font-weight="bold" id="svg_13" stroke-width="2px" paint-order="stroke fill" fill="#222" font="700 14px system-ui,Segoe UI,Roboto,Arial" class="h" y="75.01279" x="410.75628">2) Sequência de grãos</text>
  <g id="svg_14">
   <rect stroke="#c9b28a" id="svg_15" vector-effect="non-scaling-stroke" fill="#fff" class="box" rx="6" height="140" width="419.00002" y="81" x="416"/>
   <g id="svg_16">
    <rect id="svg_17" vector-effect="non-scaling-stroke" stroke="#c9b28a" fill="#ece8df" class="chip" height="48" width="50" y="97" x="432"/>
    <text id="svg_18" stroke-width="2px" stroke="#fff" paint-order="stroke fill" fill="#333" font="12px system-ui,Segoe UI,Roboto,Arial" class="t" text-anchor="middle" y="127" x="457">120</text>
    <rect id="svg_19" vector-effect="non-scaling-stroke" stroke="#c9b28a" fill="#ece8df" class="chip" height="48" width="50" y="97" x="492"/>
    <text id="svg_20" stroke-width="2px" stroke="#fff" paint-order="stroke fill" fill="#333" font="12px system-ui,Segoe UI,Roboto,Arial" class="t" text-anchor="middle" y="127" x="517">180</text>
    <rect id="svg_21" vector-effect="non-scaling-stroke" stroke="#c9b28a" fill="#ece8df" class="chip" height="48" width="50" y="97" x="552"/>
    <text id="svg_22" stroke-width="2px" stroke="#fff" paint-order="stroke fill" fill="#333" font="12px system-ui,Segoe UI,Roboto,Arial" class="t" text-anchor="middle" y="127" x="577">220</text>
    <rect id="svg_23" vector-effect="non-scaling-stroke" stroke="#c9b28a" fill="#ece8df" class="chip" height="48" width="50" y="97" x="612"/>
    <text id="svg_24" stroke-width="2px" stroke="#fff" paint-order="stroke fill" fill="#333" font="12px system-ui,Segoe UI,Roboto,Arial" class="t" text-anchor="middle" y="127" x="637">320</text>
    <rect id="svg_25" vector-effect="non-scaling-stroke" stroke="#c9b28a" fill="#ece8df" class="chip" height="48" width="50" y="97" x="672"/>
    <text id="svg_26" stroke-width="2px" stroke="#fff" paint-order="stroke fill" fill="#333" font="12px system-ui,Segoe UI,Roboto,Arial" class="t" text-anchor="middle" y="127" x="697">400</text>
    <rect id="svg_27" vector-effect="non-scaling-stroke" stroke="#c9b28a" fill="#ece8df" class="chip" height="48" width="50" y="97" x="732"/>
    <text id="svg_28" stroke-width="2px" stroke="#fff" paint-order="stroke fill" fill="#333" font="12px system-ui,Segoe UI,Roboto,Arial" class="t" text-anchor="middle" y="127" x="757">600</text>
   </g>
   <text id="svg_29" stroke-width="2px" stroke="#fff" paint-order="stroke fill" fill="#333" font="12px system-ui,Segoe UI,Roboto,Arial" class="t" y="183" x="436">Troque de grão somente quando os riscos do anterior sumirem.</text>
  </g>
  <text style="cursor: move;" font-weight="bold" id="svg_30" stroke-width="2px" stroke="#fff" paint-order="stroke fill" fill="#222" font="700 14px system-ui,Segoe UI,Roboto,Arial" class="h" y="276" x="39">3) Bordas &amp; filetes (não arredondar)</text>
  <g stroke="null" id="svg_31">
   <rect stroke="#c9b28a" id="svg_32" vector-effect="non-scaling-stroke" fill="#fff" class="box" rx="6" height="162.99999" width="384.99999" y="292" x="36"/>
   <!-- seção simplificada -->
   <rect stroke="#c9b28a" id="svg_33" vector-effect="non-scaling-stroke" fill="#f2e9da" height="23.28571" width="342.22221" y="396.78571" x="57.38889"/>
   <rect stroke="#94a9d6" id="svg_34" vector-effect="non-scaling-stroke" fill="#e7f0fb" height="23.28571" width="342.22221" y="373.5" x="57.38889"/>
   <rect stroke="#000" id="svg_35" vector-effect="non-scaling-stroke" fill="#262626" height="9.31429" width="342.22221" y="364.18571" x="57.38889"/>
   <text transform="matrix(1.06944 0 0 1.16429 -2.63889 -42.2214)" stroke="#fff" id="svg_36" stroke-width="2px" paint-order="stroke fill" fill="#333" font="12px system-ui,Segoe UI,Roboto,Arial" class="t" y="344.06135" x="58.12987">filete</text>
   <text transform="matrix(1.06944 0 0 1.16429 -2.63889 -42.2214)" stroke="#fff" id="svg_37" stroke-width="2px" paint-order="stroke fill" fill="#333" font="12px system-ui,Segoe UI,Roboto,Arial" class="t" y="371.06135" x="64.12987">tampo/fundo</text>
   <text transform="matrix(1.06944 0 0 1.16429 -2.63889 -42.2214)" stroke="#fff" id="svg_38" stroke-width="2px" paint-order="stroke fill" fill="#333" font="12px system-ui,Segoe UI,Roboto,Arial" class="t" y="391.06135" x="64.12987">faixa</text>
   <!-- bom/ruim -->
   <rect stroke="#9ed3ab" id="svg_39" vector-effect="non-scaling-stroke" fill="#e6f7ec" class="good" rx="4" height="20.95714" width="64.16667" y="330.42143" x="197.48611"/>
   <text transform="matrix(1.06944 0 0 1.16429 -2.63889 -42.2214)" stroke="#fff" id="svg_40" stroke-width="2px" paint-order="stroke fill" fill="#333" font="12px system-ui,Segoe UI,Roboto,Arial" class="t" text-anchor="middle" y="335.06135" x="217.12987">OK</text>
   <rect stroke="#e79a9a" id="svg_41" vector-effect="non-scaling-stroke" fill="#fde8e8" class="bad" rx="4" height="20.95714" width="64.16667" y="333.91428" x="309.77777"/>
   <text transform="matrix(1.06944 0 0 1.16429 -2.63889 -42.2214)" stroke="#fff" id="svg_42" stroke-width="2px" paint-order="stroke fill" fill="#333" font="12px system-ui,Segoe UI,Roboto,Arial" class="t" text-anchor="middle" y="336.06135" x="323.12987">NÃO</text>
   <path stroke="#444" id="svg_43" vector-effect="non-scaling-stroke" marker-end="url(#arr)" stroke-width="2" class="dim" d="m229.56944,330.42143l0,-18.62857"/>
   <text transform="matrix(1.06944 0 0 1.16429 -2.63889 -42.2214)" stroke="#fff" id="svg_44" stroke-width="2px" paint-order="stroke fill" fill="#333" font="12px system-ui,Segoe UI,Roboto,Arial" class="t" y="303.06135" x="181.12987">apoio largo</text>
   <path stroke="#444" id="svg_45" vector-effect="non-scaling-stroke" marker-end="url(#arr)" stroke-width="2" class="dim" d="m341.8611,333.91428l0,-18.62857"/>
   <text transform="matrix(1.06944 0 0 1.16429 -2.63889 -42.2214)" stroke="#fff" id="svg_46" stroke-width="2px" paint-order="stroke fill" fill="#333" font="12px system-ui,Segoe UI,Roboto,Arial" class="t" y="303.06135" x="269.12987">arredonda a aresta</text>
  </g>
  <text font-weight="bold" id="svg_47" stroke-width="2px" stroke="#fff" paint-order="stroke fill" fill="#222" font="700 14px system-ui,Segoe UI,Roboto,Arial" class="h" y="275" x="441">4) Cola residual (roseta/filetes)</text>
  <g stroke="null" id="svg_48">
   <rect stroke="#c9b28a" id="svg_49" vector-effect="non-scaling-stroke" fill="#fff" class="box" rx="6" height="173" width="404.00002" y="290" x="436.99998"/>
   <circle stroke="#c9b28a" id="svg_50" fill="#fff" r="44.65287" cy="376.5" cx="537.99999"/>
   <circle stroke="#9c7a4e" id="svg_51" stroke-width="6" fill="none" r="27.90804" cy="376.5" cx="537.99999"/>
   <path stroke="#bdbdbd" id="svg_52" vector-effect="non-scaling-stroke" stroke-dasharray="6 4" fill="none" class="ghost" d="m616.55555,341.9l62.84445,0"/>
   <path stroke="#bdbdbd" id="svg_53" vector-effect="non-scaling-stroke" stroke-dasharray="6 4" fill="none" class="ghost" d="m616.55555,376.5l62.84445,0"/>
   <path stroke="#bdbdbd" id="svg_54" vector-effect="non-scaling-stroke" stroke-dasharray="6 4" fill="none" class="ghost" d="m616.55555,411.1l62.84445,0"/>
   <rect stroke="#e2c14c" id="svg_55" vector-effect="non-scaling-stroke" fill="#fff2cc" class="warn" rx="4" height="29.65714" width="157.11111" y="299.88571" x="655.83333"/>
   <text stroke="#fff" transform="matrix(1.03369 0 0 1.23571 7.08752 -79.4786)" id="svg_56" stroke-width="2px" paint-order="stroke fill" fill="#333" font="12px system-ui,Segoe UI,Roboto,Arial" class="t" y="325" x="635.20357">raspilha/cinzel deitado</text>
   <text stroke="#fff" transform="matrix(0.847798 0 0 1.50516 50.8431 -194.349)" id="svg_57" stroke-width="2px" paint-order="stroke fill" fill="#333" font="12px system-ui,Segoe UI,Roboto,Arial" class="t" y="429.59188" x="466.21265">Remova cola antes da seladora; use luz rasante para achar brilhos de cola.</text>
  </g>
 </g>
</svg>