<?xml version="1.0" standalone="no"?>
<!DOCTYPE svg PUBLIC "-//W3C//DTD SVG 20010904//EN"
 "http://www.w3.org/TR/2001/REC-SVG-20010904/DTD/svg10.dtd">
<svg version="1.0" xmlns="http://www.w3.org/2000/svg"
 width="1024.000000pt" height="1024.000000pt" viewBox="0 0 1024.000000 1024.000000"
 preserveAspectRatio="xMidYMid meet">

<g transform="translate(0.000000,1024.000000) scale(0.100000,-0.100000)"
fill="#000000" stroke="none">
<path d="M2865 8429 c-22 -6 -69 -8 -105 -5 -72 7 -99 -4 -141 -59 -20 -24
-23 -39 -21 -97 l1 -68 -37 0 c-43 0 -62 -14 -62 -46 0 -31 23 -46 67 -42 37
3 38 2 41 -31 7 -66 -3 -80 -56 -83 l-47 -3 0 -40 0 -40 45 1 c25 1 48 -4 52
-10 13 -19 9 -104 -4 -109 -7 -2 -26 0 -41 4 -22 6 -33 3 -48 -12 -24 -24 -24
-44 1 -69 23 -23 33 -25 61 -7 17 10 22 9 33 -6 8 -9 16 -34 20 -55 3 -20 21
-60 39 -88 l34 -51 -7 -134 c-4 -74 -8 -226 -9 -339 -1 -113 -8 -421 -16 -685
-8 -264 -15 -664 -15 -889 l0 -409 -54 -57 c-84 -87 -101 -128 -101 -235 0
-78 4 -98 28 -146 15 -31 50 -78 77 -103 l50 -47 0 -287 c0 -158 -4 -292 -8
-299 -5 -8 -44 -13 -112 -15 l-105 -3 0 -40 c0 -36 4 -42 35 -57 105 -51 603
-51 710 0 29 14 35 23 38 54 l3 37 -108 3 -108 3 -3 303 -2 304 46 51 c71 78
98 145 98 242 1 99 -28 167 -97 237 l-47 46 0 189 c0 103 -7 467 -15 808 -8
341 -17 784 -20 985 -3 201 -8 390 -10 420 -5 50 -1 63 35 135 22 43 40 89 40
102 0 27 26 41 43 24 36 -36 93 21 67 68 -11 21 -15 23 -60 25 -23 1 -25 5
-28 59 -3 58 8 73 36 45 18 -18 58 5 66 37 10 41 -18 68 -62 60 l-33 -6 3 58
3 58 45 0 45 0 3 43 3 42 -45 0 -46 0 0 60 c0 71 -17 109 -63 144 -41 31 -79
38 -132 25z m-135 -494 c0 -211 -2 -255 -14 -255 -22 0 -23 15 -21 185 3 318
4 325 20 325 13 0 15 -35 15 -255z m218 10 c2 -231 -3 -276 -29 -259 -10 6
-13 463 -3 489 4 9 12 14 18 12 8 -3 12 -76 14 -242z m-175 -1597 c-2 -618 -6
-1151 -9 -1185 -3 -35 -10 -63 -16 -63 -8 0 -9 199 -4 683 10 1140 19 1687 25
1687 3 0 5 -505 4 -1122z m101 760 c11 -648 12 -1993 1 -1996 -6 -1 -11 118
-12 340 -9 1615 -10 2018 -3 2018 4 0 10 -163 14 -362z m-114 -2338 c0 -173
-4 -270 -10 -270 -6 0 -10 97 -10 270 0 173 4 270 10 270 6 0 10 -97 10 -270z
m130 0 c0 -233 -2 -270 -15 -270 -13 0 -15 37 -15 270 0 233 2 270 15 270 13
0 15 -37 15 -270z m-150 -604 c0 -181 -4 -287 -10 -291 -6 -3 -12 0 -15 7 -2
7 -6 138 -7 291 -3 258 -2 277 15 277 16 0 17 -20 17 -284z m190 -7 c0 -271
-1 -290 -17 -287 -17 3 -18 26 -21 278 -1 151 0 280 3 287 2 7 11 13 20 13 13
0 15 -36 15 -291z m-98 -4 c-2 -154 -5 -281 -7 -283 -2 -2 -8 -1 -14 3 -7 4
-11 99 -11 286 0 262 1 280 18 277 16 -3 17 -23 14 -283z"/>
<path d="M3600 6686 c0 -3 10 -22 23 -43 22 -38 22 -40 22 -468 0 -426 0 -430
-23 -473 -12 -23 -22 -45 -22 -47 0 -3 79 -5 175 -5 189 0 213 5 280 55 18 15
45 50 60 78 21 43 25 65 25 140 0 121 -13 161 -76 224 l-51 51 34 32 c51 49
66 86 71 178 7 132 -35 208 -143 258 -46 22 -63 24 -212 24 -90 0 -163 -2
-163 -4z m332 -153 c26 -25 28 -31 28 -114 0 -49 -5 -99 -11 -113 -15 -32 -70
-58 -112 -54 l-32 3 -3 145 c-1 79 0 151 3 158 9 24 93 7 127 -25z m-12 -428
c44 -23 60 -63 60 -149 0 -85 -20 -147 -53 -169 -30 -19 -82 -30 -107 -22 -19
6 -20 15 -20 174 0 92 3 171 7 174 12 13 84 7 113 -8z"/>
<path d="M4350 6680 c0 -5 5 -10 10 -10 6 0 15 -11 21 -24 9 -18 2 -71 -31
-247 -100 -542 -121 -646 -142 -689 -13 -25 -24 -48 -26 -52 -2 -5 44 -8 102
-8 58 0 106 2 106 5 0 3 -7 17 -16 31 -13 20 -15 38 -10 95 11 104 5 99 107
99 103 0 103 0 114 -100 6 -57 4 -68 -14 -92 -12 -14 -21 -29 -21 -32 0 -3 54
-6 120 -6 100 0 120 3 120 15 0 8 -4 15 -9 15 -18 0 -40 86 -75 285 -19 110
-53 304 -76 430 -22 127 -40 245 -40 263 l0 32 -120 0 c-73 0 -120 -4 -120
-10z m164 -461 c18 -107 31 -197 29 -201 -2 -5 -33 -8 -68 -8 -35 0 -66 3 -68
8 -4 6 54 383 63 412 4 12 13 -30 44 -211z"/>
<path d="M4885 6644 l25 -47 0 -426 c0 -403 -2 -428 -20 -470 -11 -24 -20 -45
-20 -47 0 -2 54 -4 120 -4 95 0 120 3 120 14 0 7 -7 19 -14 26 -24 19 -36 107
-33 235 l3 120 40 3 41 3 41 -154 c23 -84 42 -174 42 -200 l0 -47 115 0 c63 0
115 4 115 8 0 5 -12 19 -26 33 -14 13 -37 45 -50 71 -24 48 -104 282 -104 306
0 7 22 35 49 61 64 62 84 127 84 261 0 140 -39 216 -136 268 -50 26 -58 27
-235 30 l-182 4 25 -48z m325 -111 c35 -33 50 -88 44 -165 -6 -76 -21 -123
-50 -157 -27 -33 -99 -59 -122 -45 -9 7 -13 52 -13 184 -1 96 -1 183 0 193 1
14 11 17 56 17 46 0 60 -4 85 -27z"/>
<path d="M5678 6667 c34 -36 39 2 -79 -617 -46 -240 -66 -325 -85 -357 l-24
-42 106 -3 c58 -2 108 0 110 4 3 4 -5 21 -17 37 -20 27 -20 33 -10 101 7 40
14 77 17 81 8 13 182 11 189 -1 4 -6 9 -44 12 -85 5 -59 2 -79 -11 -99 -9 -14
-16 -28 -16 -31 0 -3 54 -5 120 -5 66 0 120 3 120 6 0 3 -9 19 -20 35 -12 15
-27 59 -35 96 -37 179 -145 815 -145 856 l0 47 -127 0 -126 0 21 -23z m152
-450 c16 -97 30 -184 30 -192 0 -12 -15 -15 -71 -15 l-72 0 6 38 c42 278 61
384 68 367 4 -11 22 -100 39 -198z"/>
<path d="M6096 6678 c-11 -33 -15 -157 -6 -163 5 -3 20 1 32 9 19 12 85 20
136 17 11 -1 12 -78 10 -403 -3 -397 -3 -404 -25 -441 -13 -21 -23 -40 -23
-43 0 -7 236 -5 243 3 4 3 1 13 -7 22 -31 35 -36 97 -36 479 0 298 3 382 13
383 47 3 115 -5 138 -16 15 -8 29 -11 33 -8 8 8 8 67 0 127 l-7 46 -249 0
c-190 0 -250 -3 -252 -12z"/>
<path d="M6705 6644 l25 -47 0 -426 c0 -403 -2 -428 -20 -470 -11 -24 -20 -45
-20 -47 0 -2 54 -4 120 -4 66 0 120 2 120 5 0 3 -9 22 -20 42 -19 36 -20 57
-20 478 0 421 1 442 20 478 l20 37 -125 0 -124 0 24 -46z"/>
<path d="M7062 6659 l23 -31 3 -445 c2 -428 2 -448 -17 -486 -11 -22 -19 -43
-17 -46 2 -3 111 -4 243 -1 l238 5 9 78 c5 43 6 81 2 84 -3 4 -22 -1 -41 -10
-41 -19 -254 -25 -256 -7 -1 6 -1 17 -1 25 0 8 0 78 1 155 l1 140 83 0 c59 0
89 -5 105 -16 l22 -15 1 83 c1 86 0 110 -7 117 -2 3 -20 -3 -39 -12 -22 -11
-60 -17 -100 -17 l-65 0 -1 58 c-1 109 -1 177 0 205 l1 27 108 0 c74 -1 115
-5 132 -15 14 -8 28 -14 33 -15 9 0 9 47 1 118 l-7 52 -239 0 -239 0 23 -31z"/>
<path d="M7662 6658 l23 -33 3 -440 3 -441 -25 -47 -25 -47 124 0 c129 0 141
4 111 39 -27 32 -36 87 -36 222 l0 139 39 0 c22 0 43 -5 46 -11 16 -25 85
-308 85 -346 l0 -43 115 0 c63 0 115 4 115 8 0 5 -9 17 -21 28 -38 34 -70 101
-118 248 l-48 145 40 32 c133 107 136 424 4 523 -61 46 -114 56 -293 56 l-165
0 23 -32z m309 -114 c41 -21 59 -68 59 -156 0 -138 -41 -210 -127 -222 -33 -4
-49 -2 -55 6 -9 16 -11 372 -1 381 12 13 94 7 124 -9z"/>
<path d="M8336 6643 l24 -46 0 -426 c0 -403 -2 -428 -20 -470 -11 -24 -20 -45
-20 -47 0 -2 54 -4 120 -4 71 0 120 4 120 10 0 5 -9 24 -20 42 -19 32 -20 51
-20 473 1 363 3 444 15 465 27 48 24 50 -104 50 l-118 0 23 -47z"/>
<path d="M3030 5384 l0 -297 51 -54 c149 -158 145 -384 -11 -553 l-40 -43 0
-259 0 -258 89 0 c74 0 92 -3 115 -21 22 -17 26 -29 26 -68 0 -118 -94 -152
-425 -152 -165 0 -337 15 -384 32 -14 6 -38 22 -53 37 -24 21 -28 34 -28 77 0
82 19 95 135 95 l95 0 0 256 0 256 -49 54 c-27 30 -62 80 -78 112 -25 51 -28
67 -28 162 0 95 3 110 28 163 16 32 51 80 79 107 l50 50 6 296 5 297 -67 -8
c-296 -31 -499 -201 -538 -447 -16 -108 0 -206 58 -360 42 -110 47 -132 48
-208 1 -105 -11 -134 -122 -285 -163 -220 -232 -403 -232 -612 0 -237 76 -423
234 -570 200 -187 458 -261 861 -250 272 8 437 43 606 127 359 181 499 560
358 971 -41 120 -79 185 -239 409 -86 120 -91 221 -21 404 72 188 84 276 56
409 -49 233 -243 386 -532 421 l-53 7 0 -297z"/>
<path d="M4090 5112 c0 -104 2 -191 4 -193 2 -2 63 -3 135 -1 l131 3 0 35 0
34 -90 0 -90 0 0 155 0 155 -45 0 -45 0 0 -188z"/>
<path d="M4510 5162 c0 -163 11 -193 81 -230 82 -43 200 -15 243 57 15 26 20
59 24 172 l5 139 -47 0 -46 0 0 -120 c0 -66 -5 -130 -11 -143 -23 -50 -91 -61
-136 -23 l-28 24 0 131 0 131 -42 0 -43 0 0 -138z"/>
<path d="M5010 5260 l0 -40 65 0 65 0 0 -150 0 -150 35 0 c19 0 38 0 41 0 3 0
5 68 5 150 l-2 150 66 0 65 0 0 40 0 40 -170 0 -170 0 0 -40z"/>
<path d="M5520 5111 l0 -189 41 -4 c22 -2 42 -1 44 2 1 3 2 38 1 78 l-1 72 83
0 82 0 0 -75 0 -75 45 0 45 0 0 190 0 190 -45 0 -45 0 0 -77 0 -78 -82 2 -83
1 0 76 0 76 -42 0 -43 0 0 -189z"/>
<path d="M6070 5110 l0 -190 44 0 44 0 -1 190 0 190 -44 0 -43 0 0 -190z"/>
<path d="M6350 5108 l0 -193 145 0 145 0 0 40 0 40 -101 0 -102 0 -1 38 -1 37
98 0 97 0 0 40 0 40 -99 0 -98 0 1 35 1 35 103 0 102 0 0 40 0 40 -145 0 -145
0 0 -192z"/>
<path d="M6820 5110 l0 -190 43 0 42 0 0 60 0 61 35 -3 c30 -3 40 -11 71 -58
35 -53 38 -55 88 -60 28 -3 51 -3 51 -1 0 3 -19 33 -42 68 l-41 64 32 27 c65
54 50 171 -24 206 -24 12 -64 16 -144 16 l-111 0 0 -190z m224 94 c21 -20 20
-43 -1 -66 -12 -14 -31 -18 -77 -18 l-61 0 0 50 0 50 62 0 c43 0 66 -5 77 -16z"/>
<path d="M7330 5107 l0 -193 40 4 40 4 0 189 0 189 -40 0 -40 0 0 -193z"/>
<path d="M7666 5119 c-43 -100 -80 -187 -82 -193 -3 -7 13 -11 40 -11 43 0 46
2 62 38 l17 37 83 0 84 0 14 -34 c13 -30 19 -34 60 -37 25 -2 46 -1 46 2 0 4
-35 89 -78 190 l-78 184 -45 3 -45 3 -78 -182z m153 3 l21 -52 -54 0 -54 0 26
65 c28 71 28 71 61 -13z"/>
<path d="M4345 4574 c-128 -18 -264 -58 -352 -103 l-42 -21 64 -122 c91 -175
126 -286 133 -419 l5 -106 76 19 c93 22 250 24 355 3 42 -8 196 -55 344 -104
695 -235 1119 -285 1637 -196 198 34 378 88 810 243 77 27 175 55 217 62 103
17 275 8 354 -17 l61 -20 6 121 c8 190 33 273 134 444 31 51 54 95 51 97 -13
13 -146 67 -210 86 -93 27 -288 36 -396 20 -115 -18 -272 -64 -512 -151 -464
-168 -632 -203 -960 -203 -344 1 -464 28 -1090 241 -113 39 -257 82 -320 96
-110 24 -296 40 -365 30z m260 -244 c84 -27 89 -31 81 -63 l-6 -25 -57 18
c-58 18 -58 18 -70 -3 -14 -27 -11 -33 24 -40 16 -3 40 -10 55 -16 25 -9 26
-12 17 -41 -12 -33 -9 -33 -89 -5 l-35 12 -16 -46 c-14 -41 -19 -46 -44 -44
-15 1 -30 5 -33 8 -10 9 81 276 93 272 5 -2 42 -14 80 -27z m2950 -1 c74 -20
115 -77 115 -157 0 -61 -29 -107 -85 -136 -109 -57 -223 5 -232 126 -8 98 43
155 157 177 3 0 23 -4 45 -10z m-410 -61 c-10 -47 -14 -51 -45 -44 -18 3 -33
0 -40 -9 -7 -8 -21 -15 -32 -15 -18 0 -20 5 -14 33 8 39 31 59 62 51 12 -3 25
-1 28 5 4 6 16 11 27 11 18 0 20 -4 14 -32z m-2248 -29 c48 -17 89 -32 91 -34
1 -1 -2 -14 -7 -28 l-10 -26 -57 19 c-45 16 -59 17 -66 8 -16 -26 -7 -37 47
-54 55 -18 66 -32 46 -64 -8 -12 -17 -12 -66 4 -31 10 -58 16 -60 14 -2 -2 -5
-14 -7 -27 -3 -21 4 -26 54 -43 55 -19 58 -21 52 -46 -4 -15 -8 -28 -9 -29 -2
-4 -177 55 -183 62 -4 4 78 275 84 275 1 0 42 -14 91 -31z m2351 -179 c56 -62
102 -116 102 -120 0 -3 -15 -11 -34 -17 -31 -10 -36 -8 -55 17 l-20 28 -48
-18 c-44 -16 -48 -21 -51 -54 -3 -31 -9 -38 -39 -51 -19 -8 -36 -15 -37 -15 0
0 0 74 2 164 l3 165 27 9 c15 6 32 9 37 8 6 -1 56 -53 113 -116z m-2083 61
c-11 -46 -76 -251 -79 -251 -2 0 -17 6 -33 13 l-30 12 38 125 c21 68 41 130
43 137 4 9 12 10 36 1 27 -9 31 -14 25 -37z m215 -30 c90 -24 105 -31 102 -47
-6 -41 -9 -43 -48 -32 -26 7 -39 7 -44 -1 -3 -7 -17 -57 -30 -112 l-24 -100
-30 7 c-17 3 -33 8 -35 10 -3 3 9 53 25 113 l30 109 -43 13 c-31 8 -42 16 -39
26 4 8 6 21 6 29 0 19 7 18 130 -15z m847 -27 c12 -19 12 -22 -6 -27 -13 -3
-29 5 -48 25 l-28 30 34 -4 c21 -2 39 -11 48 -24z m704 -122 c21 -78 34 -144
31 -146 -4 -2 -19 -6 -34 -10 -25 -6 -28 -3 -38 36 -6 24 -17 63 -23 88 l-13
45 -23 -63 -24 -63 -54 53 c-54 52 -55 52 -49 23 31 -166 31 -171 -14 -177
-24 -3 -25 0 -53 146 -23 120 -26 151 -15 157 27 18 55 7 105 -41 l51 -50 24
66 c22 65 43 86 78 81 10 -2 26 -47 51 -145z m-1167 50 c132 -77 81 -272 -71
-272 -142 0 -221 140 -136 241 15 17 41 38 58 45 37 18 107 11 149 -14z m532
-68 c83 -180 103 -234 86 -234 -10 0 -26 -3 -37 -6 -17 -4 -23 2 -33 30 -13
35 -14 36 -68 36 -52 0 -55 -1 -71 -35 -15 -31 -21 -35 -54 -35 l-37 0 58 152
c58 154 62 161 113 167 5 1 24 -33 43 -75z"/>
<path d="M7448 4240 c-26 -26 -30 -36 -25 -67 12 -70 54 -103 112 -89 58 15
81 76 50 136 -30 58 -90 67 -137 20z"/>
<path d="M7138 4036 c-4 -40 -3 -41 30 -23 l23 13 -25 23 -24 22 -4 -35z"/>
<path d="M5620 3928 c-20 -21 -26 -70 -14 -103 8 -19 55 -45 84 -45 33 0 80
53 80 90 0 70 -102 110 -150 58z"/>
<path d="M6220 3856 c-6 -21 -10 -38 -8 -40 1 -1 15 0 30 3 l26 6 -18 34 -17
34 -13 -37z"/>
</g>
</svg>
