<?xml version="1.0" standalone="no"?>
<!DOCTYPE svg PUBLIC "-//W3C//DTD SVG 20010904//EN"
 "http://www.w3.org/TR/2001/REC-SVG-20010904/DTD/svg10.dtd">
<svg version="1.0" xmlns="http://www.w3.org/2000/svg"
 width="640.000000pt" height="640.000000pt" viewBox="0 0 640.000000 640.000000"
 preserveAspectRatio="xMidYMid meet">

<g transform="translate(0.000000,640.000000) scale(0.100000,-0.100000)"
fill="#000000" stroke="none">
<path d="M4235 5319 c-4 -19 -11 -51 -17 -73 l-9 -38 -23 21 c-29 27 -42 27
-62 -4 -31 -47 5 -82 57 -55 10 6 19 8 19 5 0 -21 -33 -145 -38 -145 -4 0 -13
9 -20 20 -25 40 -72 14 -72 -40 0 -29 28 -37 62 -17 32 18 36 9 17 -40 -6 -15
-8 -47 -4 -69 l6 -41 82 -5 c47 -3 84 -1 86 4 2 5 18 25 37 43 19 19 34 42 34
52 0 10 5 25 10 33 8 13 12 12 25 -7 20 -28 46 -29 70 -3 12 13 15 27 11 46
-6 22 -11 25 -34 21 -15 -2 -35 -7 -44 -11 -15 -7 -15 -1 4 61 11 37 24 72 28
76 4 5 18 -1 30 -13 19 -19 24 -20 43 -7 27 18 33 59 11 77 -14 12 -20 12 -45
-2 -34 -20 -34 -21 -9 61 11 35 19 65 17 67 -1 2 -62 6 -134 10 l-131 7 -7
-34z"/>
<path d="M2160 5044 c-19 -3 -105 -16 -190 -30 -134 -23 -172 -25 -282 -20
-121 6 -128 6 -128 -12 0 -14 15 -25 61 -42 110 -40 181 -132 199 -261 12 -84
12 -1308 0 -1423 -16 -152 -69 -230 -196 -287 -35 -16 -66 -34 -70 -40 -14
-23 22 -36 83 -28 231 29 500 -17 681 -116 148 -81 343 -244 548 -458 91 -95
122 -134 132 -167 18 -59 59 -115 134 -186 147 -137 385 -254 633 -310 110
-25 342 -30 449 -10 169 32 312 103 425 210 91 87 124 132 116 156 -11 34 -37
23 -106 -43 -126 -120 -318 -190 -466 -170 l-44 6 48 27 c114 66 202 177 248
314 21 63 26 97 27 180 0 113 -15 182 -67 311 -68 170 -66 230 13 374 26 47
53 101 60 121 37 97 31 234 -14 324 -55 110 -175 200 -301 226 -29 6 -53 12
-53 13 0 6 35 196 79 432 113 598 125 665 120 669 -2 2 -38 6 -79 9 l-76 6
-57 -252 c-31 -139 -113 -502 -182 -807 -70 -305 -128 -576 -131 -603 -2 -26
-9 -71 -14 -99 -6 -28 -8 -66 -5 -82 5 -29 -47 -342 -59 -354 -17 -17 -15 20
10 150 15 78 29 158 32 177 l5 34 -31 -22 c-92 -65 -120 -195 -64 -295 16 -28
28 -55 26 -61 -1 -5 -10 -45 -19 -88 l-17 -79 -48 7 c-44 6 -48 5 -54 -17 -17
-65 -22 -63 169 -94 96 -15 177 -25 181 -21 4 3 7 23 8 44 1 36 0 37 -44 46
-25 5 -46 10 -48 11 -1 2 4 38 13 81 8 43 12 88 9 100 -3 13 6 94 21 181 14
88 27 167 28 177 1 9 7 17 13 17 8 0 15 23 19 58 10 87 12 90 47 88 36 -1 32
-15 93 309 21 110 41 204 46 209 13 14 133 -50 179 -95 70 -69 85 -109 85
-226 l0 -102 -67 -130 c-102 -196 -108 -290 -29 -470 61 -137 74 -199 68 -316
-5 -115 -25 -176 -88 -265 -55 -79 -148 -143 -246 -169 -39 -11 -49 -9 -125
23 -201 83 -388 208 -651 434 -54 46 -101 90 -103 97 -7 18 31 121 68 183 18
29 83 107 145 172 164 175 165 179 152 555 -4 108 -3 112 29 177 18 37 47 79
65 94 51 43 133 76 203 82 37 3 69 11 75 19 23 28 -5 35 -113 31 -84 -3 -113
-8 -158 -29 -173 -81 -230 -230 -184 -484 14 -76 15 -99 5 -149 -20 -96 -46
-133 -186 -271 -116 -115 -137 -140 -172 -213 l-40 -82 -119 96 c-134 108
-252 188 -369 251 l-80 43 97 0 c222 0 426 82 551 221 68 75 102 138 127 235
82 320 -113 618 -458 700 -37 9 -74 18 -82 20 -8 3 9 15 40 28 97 39 164 83
228 150 227 236 146 580 -172 727 -118 55 -204 71 -396 74 -96 2 -191 1 -210
-1z m325 -139 c178 -47 295 -184 303 -359 10 -191 -89 -341 -263 -400 -118
-40 -392 -43 -416 -4 -5 7 -9 178 -9 379 0 385 -1 381 45 392 50 12 283 6 340
-8z m10 -932 c94 -20 219 -82 286 -142 63 -57 115 -138 135 -213 29 -112 12
-284 -40 -387 -29 -56 -110 -132 -176 -166 -145 -73 -348 -83 -506 -24 -102
38 -94 -2 -94 492 0 237 4 437 8 443 4 7 18 14 32 17 44 9 282 -4 355 -20z
m1339 -855 c-3 -12 -8 -64 -9 -117 -2 -80 -26 -262 -51 -383 -5 -23 -2 -28 15
-28 25 0 25 5 6 -93 -8 -43 -15 -80 -15 -82 0 -2 -9 -1 -21 2 -18 5 -20 11
-15 42 16 92 19 131 7 131 -6 0 -11 -10 -11 -22 0 -12 -5 -49 -11 -83 -10 -60
-11 -61 -40 -57 -16 2 -29 7 -29 11 0 3 8 43 17 89 17 82 18 83 44 77 32 -7
29 -15 58 175 11 69 23 144 27 168 6 38 5 42 -15 42 -24 0 -25 2 -10 87 10 57
13 63 36 63 20 0 23 -3 17 -22z m61 -30 c-18 -118 -17 -116 -44 -99 -10 7 -12
24 -6 75 6 62 8 66 32 66 24 0 24 -2 18 -42z"/>
<path d="M3876 2843 c-9 -65 -22 -140 -27 -166 -5 -26 -9 -57 -9 -68 0 -18 2
-19 29 -5 39 21 87 77 101 121 19 58 9 146 -23 194 -43 65 -51 55 -71 -76z"/>
</g>
</svg>
