<svg width="900" height="700" xmlns="http://www.w3.org/2000/svg">
 <defs>
  <marker orient="auto-start-reverse" markerHeight="6" markerWidth="6" refY="5" refX="5" viewBox="0 0 10 10" id="arrow-action">
   <path id="svg_1" fill="#5c5146" d="m0,1l10,4l-10,4l0,-8z"/>
  </marker>
 </defs>
 <g>
  <title>Layer 1</title>
  <rect id="svg_3" fill="#fdfaf3" class="bg-canvas" height="700" width="900"/>
  <text id="svg_4" fill="#4a3e3d" font-weight="bold" font-size="20px" font-family="'Helvetica Neue', Helvetica, Arial, sans-serif" class="text-main-title" y="40" x="30">Seladora e Pore Fill — Estrutura de Poros, Métodos e Selagem Intermediária</text>
  <rect id="svg_5" rx="4" stroke="#f0ad4e" fill="#fff7eb" height="28" width="840" y="52" x="30"/>
  <text id="svg_6" font-weight="bold" fill="#a06000" font-style="italic" font-size="12px" font-family="'Helvetica Neue', Helvetica, Arial, sans-serif" class="text-model-note" y="70" x="45">⚠️ Nota acústica: Tampos (Abeto/Cedro) pedem selagem mínima. Pore fill agressivo é restrito às madeiras de poro aberto (Jacarandá/Mogno).</text>
  <g id="svg_7" stroke="null">
   <rect id="svg_8" x="31.53503" y="96" rx="8" stroke-width="1.5" fill="#ffffff" class="bg-panel" height="260" width="403.46497" stroke="#c8bca6"/>
   <text id="svg_9" fill="#5c5146" font-weight="bold" font-size="16px" font-family="'Helvetica Neue', Helvetica, Arial, sans-serif" class="text-step-title" y="126" x="50" stroke="null" transform="matrix(0.99621 0 0 1 1.64874 0)">1) Anatomia da Madeira e Alvos de Aplicação</text>
   <g id="svg_10" stroke="null">
    <rect id="svg_11" x="65.40616" y="157" fill="#f9ebd2" class="abeto-tampo" height="45" width="139.46937" stroke="#dfb17b"/>
    <line id="svg_12" stroke-width="0.8" y2="169" x2="204.87554" y1="169" x1="65.40616" stroke="#dfb17b"/>
    <line id="svg_13" stroke-width="0.8" y2="181" x2="204.87554" y1="181" x1="65.40616" stroke="#dfb17b"/>
    <line id="svg_14" stroke-width="0.8" y2="193" x2="204.87554" y1="193" x1="65.40616" stroke="#dfb17b"/>
    <text id="svg_15" text-anchor="middle" fill="#6b5b52" font-family="'Helvetica Neue', Helvetica, Arial, sans-serif" font-size="12px" font-weight="bold" class="text-label" y="219" x="134" stroke="null" transform="matrix(0.99621 0 0 1 1.64874 0)">Tampo (Abeto/Cedro)</text>
    <text id="svg_16" font-weight="bold" fill="#2b7042" font-size="10px" class="text-ok" y="232" x="81" stroke="null" transform="matrix(0.99621 0 0 1 1.64874 0)">Apenas Seladora Leve</text>
   </g>
   <g id="svg_17" stroke="null">
    <rect id="svg_18" x="255.68224" y="156" fill="#4a3225" class="jacaranda-fundo" height="45" width="139.46937" stroke="#2d1e16"/>
    <path id="svg_19" opacity="0.3" fill="#2d1e16" class="pore-open" d="m270.62538,156q4.98105,20 9.9621,0l-9.9621,0zm39.84839,0q4.98105,22 9.9621,0l-9.9621,0zm39.84839,0q4.98105,20 9.9621,0l-9.9621,0zm24.90525,0q4.98105,18 9.9621,0l-9.9621,0z" stroke="null"/>
    <text id="svg_20" text-anchor="middle" font-family="'Helvetica Neue', Helvetica, Arial, sans-serif" fill="#6b5b52" font-size="12px" font-weight="bold" class="text-label" y="218" x="325" stroke="null" transform="matrix(0.99621 0 0 1 1.64874 0)">Fundo (Jacarandá/Mogno)</text>
    <text id="svg_21" font-weight="bold" fill="#d9534f" font-size="10px" class="text-highlight" y="232" x="264" stroke="null" transform="matrix(0.99621 0 0 1 1.64874 0)">Exige Pore Fill Obligatório</text>
   </g>
   <rect id="svg_22" rx="4" fill="#fcfaf2" height="26" width="323.76819" y="256" x="71.38342" stroke="#c8bca6"/>
   <text id="svg_23" text-anchor="middle" font-family="'Helvetica Neue', Helvetica, Arial, sans-serif" fill="#6b5b52" font-weight="bold" font-size="12px" class="text-label" y="273" x="232" stroke="null" transform="matrix(0.99621 0 0 1 1.64874 0)">Guitarra Flamenca (Cipreste): Poro fino, fill dispensável.</text>
   <text id="svg_24" fill="#6b5b52" font-size="12px" font-family="'Helvetica Neue', Helvetica, Arial, sans-serif" text-anchor="middle" class="text-label" y="311" x="394.61632" stroke="null" transform="matrix(0.99621 0 0 1 1.64874 0)">
    <tspan id="svg_25" dy="0" x="232.61632" stroke="null">Não sature o tampo harmônico com massas pesadas.</tspan>
    <tspan id="svg_26" dy="16" x="232.61632" stroke="null">O excesso de resina amortece a vibração acústica do tampo.</tspan>
   </text>
  </g>
  <g id="svg_27">
   <rect id="svg_28" x="465" y="95" rx="8" stroke-width="1.5" stroke="#c8bca6" fill="#ffffff" class="bg-panel" height="260" width="405"/>
   <text id="svg_29" fill="#5c5146" font-weight="bold" font-size="16px" font-family="'Helvetica Neue', Helvetica, Arial, sans-serif" class="text-step-title" y="125" x="485">2) Dinâmica de Aplicação do Filler</text>
   <g id="svg_30">
    <rect id="svg_31" x="525" y="155" stroke="#2d1e16" fill="#4a3225" class="jacaranda-fundo" height="80" width="280"/>
    <line id="svg_32" stroke-dasharray="8,4" stroke="#2d1e16" y2="175" x2="805" y1="175" x1="525"/>
    <line id="svg_33" stroke-dasharray="8,4" stroke="#2d1e16" y2="195" x2="805" y1="195" x1="525"/>
    <line id="svg_34" stroke-dasharray="8,4" stroke="#2d1e16" y2="215" x2="805" y1="215" x1="525"/>
    <path id="svg_35" stroke-width="1.2" stroke="#6c757d" fill="#b0b8c0" opacity="0.9" class="tool-blade" d="m645,150l60,-10l30,50l-60,10l-30,-50z"/>
    <path id="svg_36" fill="#d98e2b" d="m675,200l60,-10l2,3l-60,10l-2,-3z"/>
    <line id="svg_37" stroke-linecap="round" fill="#5c5146" stroke-width="1.8" stroke="#5c5146" marker-end="url(#arrow-action)" class="seta-ação" y2="200" x2="670" y1="170" x1="625"/>
    <text id="svg_38" text-anchor="middle" font-family="'Helvetica Neue', Helvetica, Arial, sans-serif" fill="#6b5b52" font-weight="bold" font-size="12px" class="text-label" y="149" x="577">Movimento Cruzado</text>
   </g>
   <text id="svg_39" fill="#6b5b52" font-size="12px" font-family="'Helvetica Neue', Helvetica, Arial, sans-serif" text-anchor="middle" class="text-label" y="314" x="826">
    <tspan id="svg_40" dy="0" x="669">Force o filler / epóxi para dentro dos canais da fibra.</tspan>
    <tspan id="svg_41" dy="16" x="669">Trabalhar paralelo ao veio remove o material de dentro dos poros.</tspan>
   </text>
  </g>
  <g id="svg_42">
   <rect id="svg_43" x="30" y="385" rx="8" stroke-width="1.5" stroke="#c8bca6" fill="#ffffff" class="bg-panel" height="260" width="405"/>
   <text id="svg_44" fill="#5c5146" font-weight="bold" font-size="16px" font-family="'Helvetica Neue', Helvetica, Arial, sans-serif" class="text-step-title" y="415" x="50">3) Barreira de Isolação (Goma-Laca Descerada)</text>
   <g id="svg_45">
    <rect id="svg_46" stroke="#2d1e16" fill="#4a3225" class="jacaranda-fundo" height="40" width="300" y="495" x="80"/>
    <path id="svg_47" stroke-width="0.8" stroke="#a06000" fill="#bc8f65" class="pore-filled" d="m120,495q5,18 10,0l-10,0zm80,0q5,20 10,0l-10,0zm100,0q5,18 10,0l-10,0z"/>
    <text id="svg_48" text-anchor="middle" font-family="'Helvetica Neue', Helvetica, Arial, sans-serif" fill="#6b5b52" font-size="12px" class="text-label" y="520" x="330">Poro Nivelado</text>
    <rect id="svg_49" stroke-width="1.2" stroke="#f0ad4e" fill-opacity="0.4" fill="#f0ad4e" class="layer-shellac" height="15" width="300" y="479" x="80"/>
    <text id="svg_50" text-anchor="middle" font-family="'Helvetica Neue', Helvetica, Arial, sans-serif" fill="#6b5b52" font-weight="bold" font-size="12px" class="text-label" y="490" x="230">GOMA-LACA DESCERADA (Dewaxed)</text>
    <rect id="svg_51" stroke-width="1.2" stroke="#46b8da" fill-opacity="0.3" fill="#5bc0de" class="layer-topcoat" height="23" width="300" y="455" x="80"/>
    <text id="svg_52" text-anchor="middle" font-family="'Helvetica Neue', Helvetica, Arial, sans-serif" fill="#6b5b52" font-weight="bold" font-size="12px" class="text-label" y="470" x="230">Verniz Final (Verniz de topo: Nitro / PU)</text>
   </g>
   <text id="svg_53" fill="#6b5b52" font-size="12px" font-family="'Helvetica Neue', Helvetica, Arial, sans-serif" text-anchor="middle" class="text-label" y="603" x="390">
    <tspan id="svg_54" dy="0" x="228">A goma-laca descerada funciona como ponte química universal.</tspan>
    <tspan id="svg_55" dy="16" x="228">Impede rejeição de aderência ou incompatibilidade mecânica.</tspan>
   </text>
  </g>
  <g id="svg_56">
   <rect id="svg_57" x="465" y="385" rx="8" stroke-width="1.5" stroke="#c8bca6" fill="#ffffff" class="bg-panel" height="260" width="405"/>
   <text id="svg_58" fill="#5c5146" font-weight="bold" font-size="16px" font-family="'Helvetica Neue', Helvetica, Arial, sans-serif" class="text-step-title" y="415" x="485">4) Patologias de Oficina (Erros Comuns)</text>
   <g id="svg_59">
    <path id="svg_60" stroke-width="1.5" stroke="#d9534f" fill="#e6b8b8" d="m505,485q40,-25 80,0q40,25 80,0q40,-25 80,0q40,25 80,0l0,30l-320,0l0,-30z"/>
    <line id="svg_61" stroke-dasharray="4,3" stroke="#78828c" class="linha-guia" y2="485" x2="825" y1="485" x1="505"/>
    <circle id="svg_62" fill="#d9534f" r="3" cy="478" cx="565"/>
    <circle id="svg_63" fill="#d9534f" r="4" cy="495" cx="645"/>
    <circle id="svg_64" fill="#d9534f" r="3" cy="475" cx="725"/>
    <text id="svg_65" fill="#d9534f" text-anchor="middle" font-weight="bold" font-size="11px" class="text-highlight" y="505" x="665">Película Irregular &amp; Incompatibilidade Química</text>
   </g>
   <text id="svg_66" text-anchor="middle" font-family="'Helvetica Neue', Helvetica, Arial, sans-serif" font-weight="bold" fill="#6b5b52" font-size="12px" class="text-label" y="540" x="667">Massa grossa mal nivelada gera efeito ondulado ("ondas").</text>
   <text id="svg_67" fill="#6b5b52" font-size="12px" font-family="'Helvetica Neue', Helvetica, Arial, sans-serif" text-anchor="middle" class="text-label" y="602" x="819">
    <tspan id="svg_68" dy="0" x="662">Lixe o filler até que reste material apenas nos poros.</tspan>
    <tspan id="svg_69" dy="16" x="662">Toda a superfície externa da madeira deve ser limpa antes de selar.</tspan>
   </text>
  </g>
 </g>
</svg>